<?xml version="1.0" encoding="UTF-8" standalone="no"?>
<svg
   viewBox="0 0 114 703.90002"
   version="1.1"
   id="svg78"
   sodipodi:docname="android.svg"
   inkscape:version="1.4.2 (ebf0e940d0, 2025-05-08)"
   width="114"
   height="703.90002"
   xmlns:inkscape="http://www.inkscape.org/namespaces/inkscape"
   xmlns:sodipodi="http://sodipodi.sourceforge.net/DTD/sodipodi-0.dtd"
   xmlns="http://www.w3.org/2000/svg"
   xmlns:svg="http://www.w3.org/2000/svg">
  <defs
     id="defs78" />
  <sodipodi:namedview
     id="namedview78"
     pagecolor="#ffffff"
     bordercolor="#000000"
     borderopacity="0.25"
     inkscape:showpageshadow="2"
     inkscape:pageopacity="0.0"
     inkscape:pagecheckerboard="0"
     inkscape:deskcolor="#d1d1d1"
     showguides="true"
     inkscape:zoom="3.2094626"
     inkscape:cx="65.743093"
     inkscape:cy="590.7531"
     inkscape:window-width="1762"
     inkscape:window-height="1089"
     inkscape:window-x="0"
     inkscape:window-y="0"
     inkscape:window-maximized="1"
     inkscape:current-layer="svg78">
    <sodipodi:guide
       position="648.37081,648.4378"
       orientation="1,0"
       id="guide78"
       inkscape:locked="false" />
    <sodipodi:guide
       position="758.68304,732.00052"
       orientation="0,-1"
       id="guide79"
       inkscape:locked="false" />
    <sodipodi:guide
       position="559.59524,583.94224"
       orientation="0,-1"
       id="guide80"
       inkscape:locked="false" />
  </sodipodi:namedview>
  <!-- Group 1: Basic Head -->
  <path
     d="m 22,41.459148 a 34,33.965915 0 0 1 68,0 z"
     fill="#9fc03b"
     id="path1"
     style="stroke-width:0.999499" />
  <line
     x1="41"
     y1="16.484211"
     x2="34"
     y2="1.4992479"
     stroke="#9fc03b"
     stroke-width="2.9985"
     stroke-linecap="round"
     id="line1" />
  <line
     x1="71"
     y1="16.484211"
     x2="78"
     y2="1.4992479"
     stroke="#9fc03b"
     stroke-width="2.9985"
     stroke-linecap="round"
     id="line2" />
  <ellipse
     cx="41"
     cy="26.474186"
     fill="#000000"
     id="circle2"
     rx="3"
     ry="2.9969926"
     style="stroke-width:0.999499" />
  <ellipse
     cx="71"
     cy="26.474186"
     fill="#000000"
     id="circle3"
     rx="3"
     ry="2.9969926"
     style="stroke-width:0.999499" />
  <rect
     x="22"
     y="44.456139"
     width="68"
     height="55.943859"
     rx="8"
     ry="7.9919801"
     fill="#9fc03b"
     id="rect3"
     style="stroke-width:0.999499" />
  <!-- Group 2: Adding Arms -->
  <path
     d="m 22,146.95915 a 34,33.965915 0 0 1 68,0 z"
     fill="#9fc03b"
     id="path3"
     style="stroke-width:0.999499" />
  <line
     x1="41"
     y1="121.98421"
     x2="34"
     y2="106.99924"
     stroke="#9fc03b"
     stroke-width="2.9985"
     stroke-linecap="round"
     id="line3" />
  <line
     x1="71"
     y1="121.98421"
     x2="78"
     y2="106.99924"
     stroke="#9fc03b"
     stroke-width="2.9985"
     stroke-linecap="round"
     id="line4" />
  <ellipse
     cx="41"
     cy="131.97418"
     fill="#000000"
     id="circle4"
     rx="3"
     ry="2.9969926"
     style="stroke-width:0.999499" />
  <ellipse
     cx="71"
     cy="131.97418"
     fill="#000000"
     id="circle5"
     rx="3"
     ry="2.9969926"
     style="stroke-width:0.999499" />
  <rect
     x="22"
     y="149.95615"
     width="68"
     height="55.943859"
     rx="8"
     ry="7.9919801"
     fill="#9fc03b"
     id="rect5"
     style="stroke-width:0.999499" />
  <rect
     x="0"
     y="149.95615"
     width="16"
     height="43.955891"
     rx="8"
     ry="7.9919801"
     fill="#9fc03b"
     id="rect6"
     style="stroke-width:0.999499" />
  <rect
     x="96"
     y="149.95615"
     width="16"
     height="43.955891"
     rx="8"
     ry="7.9919801"
     fill="#9fc03b"
     id="rect7"
     style="stroke-width:0.999499" />
  <!-- Group 3: Adding Legs -->
  <path
     d="m 24,252.4 a 34,34 0 0 1 68,0 z"
     fill="#9fc03b"
     id="path7" />
  <line
     x1="43"
     y1="227.39999"
     x2="36"
     y2="212.39999"
     stroke="#9fc03b"
     stroke-width="3"
     stroke-linecap="round"
     id="line7" />
  <line
     x1="73"
     y1="227.39999"
     x2="80"
     y2="212.39999"
     stroke="#9fc03b"
     stroke-width="3"
     stroke-linecap="round"
     id="line8" />
  <circle
     cx="43"
     cy="237.39999"
     r="3"
     fill="#000000"
     id="circle8" />
  <circle
     cx="73"
     cy="237.39999"
     r="3"
     fill="#000000"
     id="circle9" />
  <rect
     x="24"
     y="255.39999"
     width="68"
     height="56"
     rx="8"
     ry="8"
     fill="#9fc03b"
     id="rect9" />
  <rect
     x="2"
     y="255.39999"
     width="16"
     height="44"
     rx="8"
     ry="8"
     fill="#9fc03b"
     id="rect10" />
  <rect
     x="98"
     y="255.39999"
     width="16"
     height="44"
     rx="8"
     ry="8"
     fill="#9fc03b"
     id="rect11" />
  <rect
     x="38"
     y="300.39999"
     width="14"
     height="30"
     rx="7"
     ry="7"
     fill="#9fc03b"
     id="rect12" />
  <rect
     x="64"
     y="300.39999"
     width="14"
     height="30"
     rx="7"
     ry="7"
     fill="#9fc03b"
     id="rect13" />
  <!-- Group 4: Wearing Lederhosen -->
  <path
     d="m 24,376.9 a 34,34 0 0 1 68,0 z"
     fill="#9fc03b"
     id="path13" />
  <line
     x1="43"
     y1="351.89999"
     x2="36"
     y2="336.89999"
     stroke="#9fc03b"
     stroke-width="3"
     stroke-linecap="round"
     id="line13" />
  <line
     x1="73"
     y1="351.89999"
     x2="80"
     y2="336.89999"
     stroke="#9fc03b"
     stroke-width="3"
     stroke-linecap="round"
     id="line14" />
  <circle
     cx="43"
     cy="361.89999"
     r="3"
     fill="#000000"
     id="circle14" />
  <circle
     cx="73"
     cy="361.89999"
     r="3"
     fill="#000000"
     id="circle15" />
  <rect
     x="24"
     y="379.89999"
     width="68"
     height="56"
     rx="8"
     ry="8"
     fill="#9fc03b"
     id="rect15" />
  <path
     d="m 24,399.9 h 68 v 36 q 0,8 -8,8 H 32 q -8,0 -8,-8 z"
     fill="#614225"
     id="path15" />
  <rect
     x="33"
     y="379.89999"
     width="8"
     height="25"
     fill="#614225"
     id="rect16" />
  <rect
     x="75"
     y="379.89999"
     width="8"
     height="25"
     fill="#614225"
     id="rect17" />
  <circle
     cx="37"
     cy="404.89999"
     r="3"
     fill="#ffd700"
     id="circle17" />
  <circle
     cx="79"
     cy="404.89999"
     r="3"
     fill="#ffd700"
     id="circle18" />
  <rect
     x="2"
     y="379.89999"
     width="16"
     height="44"
     rx="8"
     ry="8"
     fill="#9fc03b"
     id="rect18" />
  <rect
     x="98"
     y="379.89999"
     width="16"
     height="44"
     rx="8"
     ry="8"
     fill="#9fc03b"
     id="rect19" />
  <rect
     x="38"
     y="424.89999"
     width="14"
     height="30"
     rx="7"
     ry="7"
     fill="#614225"
     id="rect20" />
  <rect
     x="64"
     y="424.89999"
     width="14"
     height="30"
     rx="7"
     ry="7"
     fill="#614225"
     id="rect21" />
  <!-- Group 5: Adding White Shirt details -->
  <path
     d="m 24,501.4 a 34,34 0 0 1 68,0 z"
     fill="#9fc03b"
     id="path21" />
  <line
     x1="43"
     y1="476.39999"
     x2="36"
     y2="461.39999"
     stroke="#9fc03b"
     stroke-width="3"
     stroke-linecap="round"
     id="line21" />
  <line
     x1="73"
     y1="476.39999"
     x2="80"
     y2="461.39999"
     stroke="#9fc03b"
     stroke-width="3"
     stroke-linecap="round"
     id="line22" />
  <circle
     cx="43"
     cy="486.39999"
     r="3"
     fill="#000000"
     id="circle22" />
  <circle
     cx="73"
     cy="486.39999"
     r="3"
     fill="#000000"
     id="circle23" />
  <rect
     x="24"
     y="504.39999"
     width="68"
     height="56"
     rx="8"
     ry="8"
     fill="#9fc03b"
     id="rect23" />
  <rect
     x="24"
     y="504.39999"
     width="68"
     height="25"
     fill="#d3d7d7"
     id="rect24" />
  <path
     d="m 24,524.4 h 68 v 36 q 0,8 -8,8 H 32 q -8,0 -8,-8 z"
     fill="#614225"
     id="path24" />
  <rect
     x="33"
     y="504.39999"
     width="8"
     height="25"
     fill="#614225"
     id="rect25" />
  <rect
     x="75"
     y="504.39999"
     width="8"
     height="25"
     fill="#614225"
     id="rect26" />
  <circle
     cx="37"
     cy="529.40002"
     r="3"
     fill="#ffd700"
     id="circle26" />
  <circle
     cx="79"
     cy="529.40002"
     r="3"
     fill="#ffd700"
     id="circle27" />
  <rect
     x="2"
     y="504.39999"
     width="16"
     height="44"
     rx="8"
     ry="8"
     fill="#9fc03b"
     id="rect27" />
  <rect
     x="98"
     y="504.39999"
     width="16"
     height="44"
     rx="8"
     ry="8"
     fill="#9fc03b"
     id="rect28" />
  <rect
     x="38"
     y="549.40002"
     width="14"
     height="30"
     rx="7"
     ry="7"
     fill="#614225"
     id="rect29" />
  <rect
     x="64"
     y="549.40002"
     width="14"
     height="30"
     rx="7"
     ry="7"
     fill="#614225"
     id="rect30" />
  <!-- Group 6: Full Outfit and Confetti Celebration -->
  <path
     d="m 24,625.9 a 34,34 0 0 1 68,0 z"
     fill="#9fc03b"
     id="path30" />
  <line
     x1="43"
     y1="600.90002"
     x2="36"
     y2="585.90002"
     stroke="#9fc03b"
     stroke-width="3"
     stroke-linecap="round"
     id="line30" />
  <line
     x1="73"
     y1="600.90002"
     x2="80"
     y2="585.90002"
     stroke="#9fc03b"
     stroke-width="3"
     stroke-linecap="round"
     id="line31" />
  <circle
     cx="43"
     cy="610.90002"
     r="3"
     fill="#000000"
     id="circle31" />
  <circle
     cx="73"
     cy="610.90002"
     r="3"
     fill="#000000"
     id="circle32" />
  <rect
     x="24"
     y="628.90002"
     width="68"
     height="56"
     rx="8"
     ry="8"
     fill="#9fc03b"
     id="rect32" />
  <rect
     x="24"
     y="628.90002"
     width="68"
     height="25"
     fill="#d3d7d7"
     id="rect33" />
  <path
     d="m 24,648.9 h 68 v 36 q 0,8 -8,8 H 32 q -8,0 -8,-8 z"
     fill="#614225"
     id="path33" />
  <rect
     x="33"
     y="628.90002"
     width="8"
     height="25"
     fill="#614225"
     id="rect34" />
  <rect
     x="75"
     y="628.90002"
     width="8"
     height="25"
     fill="#614225"
     id="rect35" />
  <circle
     cx="37"
     cy="653.90002"
     r="3"
     fill="#ffd700"
     id="circle35" />
  <circle
     cx="79"
     cy="653.90002"
     r="3"
     fill="#ffd700"
     id="circle36" />
  <rect
     x="2"
     y="628.90002"
     width="16"
     height="44"
     rx="8"
     ry="8"
     fill="#9fc03b"
     id="rect36" />
  <rect
     x="98"
     y="628.90002"
     width="16"
     height="44"
     rx="8"
     ry="8"
     fill="#9fc03b"
     id="rect37" />
  <rect
     x="38"
     y="673.90002"
     width="14"
     height="30"
     rx="7"
     ry="7"
     fill="#614225"
     id="rect38" />
  <rect
     x="64"
     y="673.90002"
     width="14"
     height="30"
     rx="7"
     ry="7"
     fill="#614225"
     id="rect39" />
  <!-- Confetti Elements -->
  <circle
     cx="100"
     cy="639.90002"
     r="2"
     fill="#ffd700"
     opacity="0.8"
     id="circle39" />
  <circle
     cx="104"
     cy="659.90002"
     r="2"
     fill="#ff5e5e"
     opacity="0.8"
     id="circle40" />
  <circle
     cx="100"
     cy="670.90002"
     r="4"
     fill="#222212"
     opacity="0.8"
     id="circle41" />
  <circle
     cx="72"
     cy="675.90002"
     r="2"
     fill="#6caba2"
     opacity="0.8"
     id="circle42" />
  <circle
     cx="101"
     cy="611.90002"
     r="4"
     fill="#5eabff"
     opacity="0.8"
     id="circle43" />
  <circle
     cx="50"
     cy="621.90002"
     r="5"
     fill="#6caba2"
     opacity="0.8"
     id="circle44" />
  <circle
     cx="27"
     cy="625.90002"
     r="3"
     fill="#6caba2"
     opacity="0.8"
     id="circle45" />
  <circle
     cx="18"
     cy="620.90002"
     r="5"
     fill="#c0ae85"
     opacity="0.8"
     id="circle46" />
  <circle
     cx="19"
     cy="687.90002"
     r="2"
     fill="#726b4a"
     opacity="0.8"
     id="circle47" />
  <circle
     cx="88"
     cy="646.90002"
     r="4"
     fill="#c0ae85"
     opacity="0.8"
     id="circle48" />
  <circle
     cx="89"
     cy="647.90002"
     r="5"
     fill="#ffd700"
     opacity="0.8"
     id="circle49" />
  <circle
     cx="59"
     cy="649.90002"
     r="4"
     fill="#5eabff"
     opacity="0.8"
     id="circle50" />
  <circle
     cx="38.652641"
     cy="679.17584"
     r="4"
     fill="#6caba2"
     opacity="0.8"
     id="circle51" />
  <circle
     cx="61"
     cy="622.90002"
     r="2"
     fill="#222212"
     opacity="0.8"
     id="circle52" />
  <circle
     cx="4"
     cy="608.90002"
     r="2"
     fill="#ffd700"
     opacity="0.8"
     id="circle53" />
  <circle
     cx="15"
     cy="623.90002"
     r="2"
     fill="#6caba2"
     opacity="0.8"
     id="circle54" />
  <circle
     cx="7.5726352"
     cy="684.55267"
     r="3"
     fill="#726b4a"
     opacity="0.8"
     id="circle55" />
  <circle
     cx="87"
     cy="640.90002"
     r="3"
     fill="#6caba2"
     opacity="0.8"
     id="circle56" />
  <circle
     cx="86.818947"
     cy="694.63898"
     r="5"
     fill="#ffd700"
     opacity="0.8"
     id="circle57" />
  <circle
     cx="41"
     cy="627.90002"
     r="4"
     fill="#222212"
     opacity="0.8"
     id="circle58" />
  <circle
     cx="75"
     cy="668.90002"
     r="5"
     fill="#c0ae85"
     opacity="0.8"
     id="circle59" />
  <circle
     cx="101"
     cy="623.90002"
     r="3"
     fill="#5eabff"
     opacity="0.8"
     id="circle60" />
  <circle
     cx="3"
     cy="641.90002"
     r="3"
     fill="#6caba2"
     opacity="0.8"
     id="circle61" />
  <circle
     cx="51"
     cy="680.90002"
     r="4"
     fill="#c0ae85"
     opacity="0.8"
     id="circle62" />
  <circle
     cx="87"
     cy="631.90002"
     r="3"
     fill="#c0ae85"
     opacity="0.8"
     id="circle63" />
  <circle
     cx="59"
     cy="687.90002"
     r="3"
     fill="#ffd700"
     opacity="0.8"
     id="circle64" />
  <circle
     cx="45"
     cy="634.90002"
     r="5"
     fill="#5eabff"
     opacity="0.8"
     id="circle65" />
  <circle
     cx="84"
     cy="649.90002"
     r="5"
     fill="#ff5e5e"
     opacity="0.8"
     id="circle66" />
  <circle
     cx="77"
     cy="688.90002"
     r="3"
     fill="#ffd700"
     opacity="0.8"
     id="circle67" />
  <circle
     cx="50"
     cy="611.90002"
     r="3"
     fill="#726b4a"
     opacity="0.8"
     id="circle68" />
  <circle
     cx="57"
     cy="688.90002"
     r="2"
     fill="#ff5e5e"
     opacity="0.8"
     id="circle69" />
  <circle
     cx="12"
     cy="632.90002"
     r="2"
     fill="#726b4a"
     opacity="0.8"
     id="circle70" />
  <circle
     cx="68"
     cy="628.90002"
     r="5"
     fill="#726b4a"
     opacity="0.8"
     id="circle71" />
  <circle
     cx="105"
     cy="627.90002"
     r="5"
     fill="#ffd700"
     opacity="0.8"
     id="circle72" />
  <circle
     cx="20.151567"
     cy="698.01581"
     r="2"
     fill="#222212"
     opacity="0.8"
     id="circle73" />
  <circle
     cx="32"
     cy="620.90002"
     r="4"
     fill="#ff5e5e"
     opacity="0.8"
     id="circle74" />
  <circle
     cx="101.75368"
     cy="689.03058"
     r="3"
     fill="#726b4a"
     opacity="0.8"
     id="circle75" />
  <circle
     cx="25"
     cy="626.90002"
     r="2"
     fill="#6caba2"
     opacity="0.8"
     id="circle76" />
  <circle
     cx="31"
     cy="620.90002"
     r="5"
     fill="#ffd700"
     opacity="0.8"
     id="circle77" />
  <circle
     cx="20"
     cy="649.90002"
     r="5"
     fill="#ff5e5e"
     opacity="0.8"
     id="circle78" />
</svg>
