<svg version="1.1" viewBox="0.0 0.0 600.0 371.0" fill="none" stroke="none" stroke-linecap="square" stroke-miterlimit="10" width="600" height="371" xmlns:xlink="http://www.w3.org/1999/xlink" xmlns="http://www.w3.org/2000/svg"><path fill="#ffffff" d="M0 0L600.0 0L600.0 371.0L0 371.0L0 0Z" fill-rule="nonzero"/><path stroke="#333333" stroke-width="1.0" stroke-linecap="butt" d="M66.5 332.5L581.5 332.5" fill-rule="nonzero"/><path stroke="#cccccc" stroke-width="1.0" stroke-linecap="butt" d="M66.5 271.5L581.5 271.5" fill-rule="nonzero"/><path stroke="#cccccc" stroke-width="1.0" stroke-linecap="butt" d="M66.5 210.5L581.5 210.5" fill-rule="nonzero"/><path stroke="#cccccc" stroke-width="1.0" stroke-linecap="butt" d="M66.5 149.5L581.5 149.5" fill-rule="nonzero"/><path stroke="#cccccc" stroke-width="1.0" stroke-linecap="butt" d="M66.5 88.5L581.5 88.5" fill-rule="nonzero"/><clipPath id="id_0"><path d="M66.55 88.28333L581.45 88.28333L581.45 332.45L66.55 332.45L66.55 88.28333Z" clip-rule="nonzero"/></clipPath><path stroke="#000000" stroke-width="2.0" stroke-linecap="butt" stroke-opacity="0.0" clip-path="url(#id_0)" d="M213.0 332.0L144.0 332.0L144.0 232.0C144.0 230.89543 144.89543 230.0 146.0 230.0L211.0 230.0C212.10457 230.0 213.0 230.89543 213.0 232.0Z" fill-rule="nonzero"/><path fill="#4285f4" clip-path="url(#id_0)" d="M213.0 332.0L144.0 332.0L144.0 232.0C144.0 230.89543 144.89543 230.0 146.0 230.0L211.0 230.0C212.10457 230.0 213.0 230.89543 213.0 232.0Z" fill-rule="nonzero"/><path stroke="#000000" stroke-width="2.0" stroke-linecap="butt" stroke-opacity="0.0" clip-path="url(#id_0)" d="M433.0 332.0L364.0 332.0L364.0 235.0C364.0 233.89543 364.89542 233.0 366.0 233.0L431.0 233.0C432.10458 233.0 433.0 233.89543 433.0 235.0Z" fill-rule="nonzero"/><path fill="#4285f4" clip-path="url(#id_0)" d="M433.0 332.0L364.0 332.0L364.0 235.0C364.0 233.89543 364.89542 233.0 366.0 233.0L431.0 233.0C432.10458 233.0 433.0 233.89543 433.0 235.0Z" fill-rule="nonzero"/><path stroke="#000000" stroke-width="2.0" stroke-linecap="butt" stroke-opacity="0.0" clip-path="url(#id_0)" d="M284.0 332.0L215.0 332.0L215.0 132.0C215.0 130.89543 215.89543 130.0 217.0 130.0L282.0 130.0C283.10458 130.0 284.0 130.89543 284.0 132.0Z" fill-rule="nonzero"/><path fill="#ea4335" clip-path="url(#id_0)" d="M284.0 332.0L215.0 332.0L215.0 132.0C215.0 130.89543 215.89543 130.0 217.0 130.0L282.0 130.0C283.10458 130.0 284.0 130.89543 284.0 132.0Z" fill-rule="nonzero"/><path stroke="#000000" stroke-width="2.0" stroke-linecap="butt" stroke-opacity="0.0" clip-path="url(#id_0)" d="M504.0 332.0L435.0 332.0L435.0 128.0C435.0 126.89543 435.89542 126.0 437.0 126.0L502.0 126.0C503.10458 126.0 504.0 126.89543 504.0 128.0Z" fill-rule="nonzero"/><path fill="#ea4335" clip-path="url(#id_0)" d="M504.0 332.0L435.0 332.0L435.0 128.0C435.0 126.89543 435.89542 126.0 437.0 126.0L502.0 126.0C503.10458 126.0 504.0 126.89543 504.0 128.0Z" fill-rule="nonzero"/><path fill="#000000" d="M26.05 332.21564Q26.05 330.6844 26.3625 329.7625Q26.675 328.825 27.284374 328.325Q27.909374 327.825 28.846874 327.825Q29.534374 327.825 30.05 328.10626Q30.58125 328.3875 30.925 328.91876Q31.26875 329.4344 31.45625 330.1844Q31.64375 330.9344 31.64375 332.21564Q31.64375 333.73126 31.33125 334.65314Q31.034374 335.575 30.409374 336.09064Q29.8 336.59064 28.846874 336.59064Q27.6125 336.59064 26.89375 335.7Q26.05 334.6375 26.05 332.21564ZM27.128124 332.21564Q27.128124 334.325 27.628124 335.02814Q28.128124 335.73126 28.846874 335.73126Q29.58125 335.73126 30.065624 335.02814Q30.565624 334.325 30.565624 332.21564Q30.565624 330.09064 30.065624 329.40314Q29.58125 328.7 28.83125 328.7Q28.1125 328.7 27.675 329.3094Q27.128124 330.09064 27.128124 332.21564ZM33.64375 336.45L33.64375 335.2469L34.846874 335.2469L34.846874 336.45L33.64375 336.45ZM36.05 332.21564Q36.05 330.6844 36.3625 329.7625Q36.675 328.825 37.284374 328.325Q37.909374 327.825 38.846874 327.825Q39.534374 327.825 40.05 328.10626Q40.58125 328.3875 40.925 328.91876Q41.26875 329.4344 41.45625 330.1844Q41.64375 330.9344 41.64375 332.21564Q41.64375 333.73126 41.33125 334.65314Q41.034374 335.575 40.409374 336.09064Q39.8 336.59064 38.846874 336.59064Q37.6125 336.59064 36.89375 335.7Q36.05 334.6375 36.05 332.21564ZM37.128124 332.21564Q37.128124 334.325 37.628124 335.02814Q38.128124 335.73126 38.846874 335.73126Q39.58125 335.73126 40.065624 335.02814Q40.565624 334.325 40.565624 332.21564Q40.565624 330.09064 40.065624 329.40314Q39.58125 328.7 38.83125 328.7Q38.1125 328.7 37.675 329.3094Q37.128124 330.09064 37.128124 332.21564ZM43.05 332.21564Q43.05 330.6844 43.3625 329.7625Q43.675 328.825 44.284374 328.325Q44.909374 327.825 45.846874 327.825Q46.534374 327.825 47.05 328.10626Q47.58125 328.3875 47.925 328.91876Q48.26875 329.4344 48.45625 330.1844Q48.64375 330.9344 48.64375 332.21564Q48.64375 333.73126 48.33125 334.65314Q48.034374 335.575 47.409374 336.09064Q46.8 336.59064 45.846874 336.59064Q44.6125 336.59064 43.89375 335.7Q43.05 334.6375 43.05 332.21564ZM44.128124 332.21564Q44.128124 334.325 44.628124 335.02814Q45.128124 335.73126 45.846874 335.73126Q46.58125 335.73126 47.065624 335.02814Q47.565624 334.325 47.565624 332.21564Q47.565624 330.09064 47.065624 329.40314Q46.58125 328.7 45.83125 328.7Q45.1125 328.7 44.675 329.3094Q44.128124 330.09064 44.128124 332.21564ZM50.253124 329.91876Q50.253124 328.9969 50.70625 328.35626Q51.175 327.71564 52.05 327.71564Q52.8625 327.71564 53.39375 328.29376Q53.925 328.8719 53.925 329.98126Q53.925 331.075 53.378124 331.66876Q52.846874 332.2469 52.065624 332.2469Q51.284374 332.2469 50.76875 331.66876Q50.253124 331.09064 50.253124 329.91876ZM52.08125 328.4344Q51.690624 328.4344 51.425 328.77814Q51.175 329.1219 51.175 330.02814Q51.175 330.85626 51.425 331.2Q51.690624 331.52814 52.08125 331.52814Q52.4875 331.52814 52.7375 331.1844Q53.003124 330.84064 53.003124 329.95Q53.003124 329.10626 52.7375 328.77814Q52.471874 328.4344 52.08125 328.4344ZM52.08125 336.7625L56.784374 327.71564L57.64375 327.71564L52.95625 336.7625L52.08125 336.7625ZM55.8 334.4344Q55.8 333.5125 56.253124 332.8719Q56.721874 332.23126 57.6125 332.23126Q58.425 332.23126 58.95625 332.8094Q59.4875 333.3719 59.4875 334.4969Q59.4875 335.59064 58.940624 336.1844Q58.409374 336.7625 57.6125 336.7625Q56.846874 336.7625 56.315624 336.1844Q55.8 335.60626 55.8 334.4344ZM57.64375 332.95Q57.2375 332.95 56.971874 333.29376Q56.721874 333.6375 56.721874 334.54376Q56.721874 335.35626 56.9875 335.7Q57.253124 336.04376 57.64375 336.04376Q58.034374 336.04376 58.3 335.7Q58.565624 335.35626 58.565624 334.45Q58.565624 333.6219 58.3 333.29376Q58.034374 332.95 57.64375 332.95Z" fill-rule="nonzero"/><path fill="#000000" d="M24.596874 274.3927L24.596874 275.40833L18.909374 275.40833Q18.909374 275.03333 19.034374 274.67395Q19.253124 274.09583 19.721874 273.53333Q20.20625 272.97083 21.1125 272.23645Q22.51875 271.0802 23.003124 270.40833Q23.503124 269.73645 23.503124 269.1427Q23.503124 268.5177 23.05 268.09583Q22.596874 267.65833 21.878124 267.65833Q21.1125 267.65833 20.659374 268.11145Q20.20625 268.56458 20.190624 269.37708L19.1125 269.2677Q19.221874 268.04895 19.940624 267.42395Q20.675 266.78333 21.909374 266.78333Q23.14375 266.78333 23.8625 267.47083Q24.58125 268.15833 24.58125 269.17395Q24.58125 269.68958 24.3625 270.18958Q24.159374 270.67395 23.659374 271.23645Q23.175 271.78333 22.05 272.73645Q21.096874 273.53333 20.815624 273.8302Q20.55 274.11145 20.378124 274.3927L24.596874 274.3927ZM26.05 271.17395Q26.05 269.6427 26.3625 268.72083Q26.675 267.78333 27.284374 267.28333Q27.909374 266.78333 28.846874 266.78333Q29.534374 266.78333 30.05 267.06458Q30.58125 267.34583 30.925 267.87708Q31.26875 268.3927 31.45625 269.1427Q31.64375 269.8927 31.64375 271.17395Q31.64375 272.68958 31.33125 273.61145Q31.034374 274.53333 30.409374 275.04895Q29.8 275.54895 28.846874 275.54895Q27.6125 275.54895 26.89375 274.65833Q26.05 273.59583 26.05 271.17395ZM27.128124 271.17395Q27.128124 273.28333 27.628124 273.98645Q28.128124 274.68958 28.846874 274.68958Q29.58125 274.68958 30.065624 273.98645Q30.565624 273.28333 30.565624 271.17395Q30.565624 269.04895 30.065624 268.36145Q29.58125 267.65833 28.83125 267.65833Q28.1125 267.65833 27.675 268.2677Q27.128124 269.04895 27.128124 271.17395ZM33.64375 275.40833L33.64375 274.2052L34.846874 274.2052L34.846874 275.40833L33.64375 275.40833ZM36.05 271.17395Q36.05 269.6427 36.3625 268.72083Q36.675 267.78333 37.284374 267.28333Q37.909374 266.78333 38.846874 266.78333Q39.534374 266.78333 40.05 267.06458Q40.58125 267.34583 40.925 267.87708Q41.26875 268.3927 41.45625 269.1427Q41.64375 269.8927 41.64375 271.17395Q41.64375 272.68958 41.33125 273.61145Q41.034374 274.53333 40.409374 275.04895Q39.8 275.54895 38.846874 275.54895Q37.6125 275.54895 36.89375 274.65833Q36.05 273.59583 36.05 271.17395ZM37.128124 271.17395Q37.128124 273.28333 37.628124 273.98645Q38.128124 274.68958 38.846874 274.68958Q39.58125 274.68958 40.065624 273.98645Q40.565624 273.28333 40.565624 271.17395Q40.565624 269.04895 40.065624 268.36145Q39.58125 267.65833 38.83125 267.65833Q38.1125 267.65833 37.675 268.2677Q37.128124 269.04895 37.128124 271.17395ZM43.05 271.17395Q43.05 269.6427 43.3625 268.72083Q43.675 267.78333 44.284374 267.28333Q44.909374 266.78333 45.846874 266.78333Q46.534374 266.78333 47.05 267.06458Q47.58125 267.34583 47.925 267.87708Q48.26875 268.3927 48.45625 269.1427Q48.64375 269.8927 48.64375 271.17395Q48.64375 272.68958 48.33125 273.61145Q48.034374 274.53333 47.409374 275.04895Q46.8 275.54895 45.846874 275.54895Q44.6125 275.54895 43.89375 274.65833Q43.05 273.59583 43.05 271.17395ZM44.128124 271.17395Q44.128124 273.28333 44.628124 273.98645Q45.128124 274.68958 45.846874 274.68958Q46.58125 274.68958 47.065624 273.98645Q47.565624 273.28333 47.565624 271.17395Q47.565624 269.04895 47.065624 268.36145Q46.58125 267.65833 45.83125 267.65833Q45.1125 267.65833 44.675 268.2677Q44.128124 269.04895 44.128124 271.17395ZM50.253124 268.87708Q50.253124 267.9552 50.70625 267.31458Q51.175 266.67395 52.05 266.67395Q52.8625 266.67395 53.39375 267.25208Q53.925 267.8302 53.925 268.93958Q53.925 270.03333 53.378124 270.62708Q52.846874 271.2052 52.065624 271.2052Q51.284374 271.2052 50.76875 270.62708Q50.253124 270.04895 50.253124 268.87708ZM52.08125 267.3927Q51.690624 267.3927 51.425 267.73645Q51.175 268.0802 51.175 268.98645Q51.175 269.81458 51.425 270.15833Q51.690624 270.48645 52.08125 270.48645Q52.4875 270.48645 52.7375 270.1427Q53.003124 269.79895 53.003124 268.90833Q53.003124 268.06458 52.7375 267.73645Q52.471874 267.3927 52.08125 267.3927ZM52.08125 275.72083L56.784374 266.67395L57.64375 266.67395L52.95625 275.72083L52.08125 275.72083ZM55.8 273.3927Q55.8 272.47083 56.253124 271.8302Q56.721874 271.18958 57.6125 271.18958Q58.425 271.18958 58.95625 271.7677Q59.4875 272.3302 59.4875 273.4552Q59.4875 274.54895 58.940624 275.1427Q58.409374 275.72083 57.6125 275.72083Q56.846874 275.72083 56.315624 275.1427Q55.8 274.56458 55.8 273.3927ZM57.64375 271.90833Q57.2375 271.90833 56.971874 272.25208Q56.721874 272.59583 56.721874 273.50208Q56.721874 274.31458 56.9875 274.65833Q57.253124 275.00208 57.64375 275.00208Q58.034374 275.00208 58.3 274.65833Q58.565624 274.31458 58.565624 273.40833Q58.565624 272.5802 58.3 272.25208Q58.034374 271.90833 57.64375 271.90833Z" fill-rule="nonzero"/><path fill="#000000" d="M22.425 214.36667L22.425 212.30417L18.70625 212.30417L18.70625 211.33542L22.628124 205.77292L23.4875 205.77292L23.4875 211.33542L24.64375 211.33542L24.64375 212.30417L23.4875 212.30417L23.4875 214.36667L22.425 214.36667ZM22.425 211.33542L22.425 207.47604L19.7375 211.33542L22.425 211.33542ZM26.05 210.1323Q26.05 208.60104 26.3625 207.67917Q26.675 206.74167 27.284374 206.24167Q27.909374 205.74167 28.846874 205.74167Q29.534374 205.74167 30.05 206.02292Q30.58125 206.30417 30.925 206.83542Q31.26875 207.35104 31.45625 208.10104Q31.64375 208.85104 31.64375 210.1323Q31.64375 211.64792 31.33125 212.5698Q31.034374 213.49167 30.409374 214.0073Q29.8 214.5073 28.846874 214.5073Q27.6125 214.5073 26.89375 213.61667Q26.05 212.55417 26.05 210.1323ZM27.128124 210.1323Q27.128124 212.24167 27.628124 212.9448Q28.128124 213.64792 28.846874 213.64792Q29.58125 213.64792 30.065624 212.9448Q30.565624 212.24167 30.565624 210.1323Q30.565624 208.0073 30.065624 207.3198Q29.58125 206.61667 28.83125 206.61667Q28.1125 206.61667 27.675 207.22604Q27.128124 208.0073 27.128124 210.1323ZM33.64375 214.36667L33.64375 213.16354L34.846874 213.16354L34.846874 214.36667L33.64375 214.36667ZM36.05 210.1323Q36.05 208.60104 36.3625 207.67917Q36.675 206.74167 37.284374 206.24167Q37.909374 205.74167 38.846874 205.74167Q39.534374 205.74167 40.05 206.02292Q40.58125 206.30417 40.925 206.83542Q41.26875 207.35104 41.45625 208.10104Q41.64375 208.85104 41.64375 210.1323Q41.64375 211.64792 41.33125 212.5698Q41.034374 213.49167 40.409374 214.0073Q39.8 214.5073 38.846874 214.5073Q37.6125 214.5073 36.89375 213.61667Q36.05 212.55417 36.05 210.1323ZM37.128124 210.1323Q37.128124 212.24167 37.628124 212.9448Q38.128124 213.64792 38.846874 213.64792Q39.58125 213.64792 40.065624 212.9448Q40.565624 212.24167 40.565624 210.1323Q40.565624 208.0073 40.065624 207.3198Q39.58125 206.61667 38.83125 206.61667Q38.1125 206.61667 37.675 207.22604Q37.128124 208.0073 37.128124 210.1323ZM43.05 210.1323Q43.05 208.60104 43.3625 207.67917Q43.675 206.74167 44.284374 206.24167Q44.909374 205.74167 45.846874 205.74167Q46.534374 205.74167 47.05 206.02292Q47.58125 206.30417 47.925 206.83542Q48.26875 207.35104 48.45625 208.10104Q48.64375 208.85104 48.64375 210.1323Q48.64375 211.64792 48.33125 212.5698Q48.034374 213.49167 47.409374 214.0073Q46.8 214.5073 45.846874 214.5073Q44.6125 214.5073 43.89375 213.61667Q43.05 212.55417 43.05 210.1323ZM44.128124 210.1323Q44.128124 212.24167 44.628124 212.9448Q45.128124 213.64792 45.846874 213.64792Q46.58125 213.64792 47.065624 212.9448Q47.565624 212.24167 47.565624 210.1323Q47.565624 208.0073 47.065624 207.3198Q46.58125 206.61667 45.83125 206.61667Q45.1125 206.61667 44.675 207.22604Q44.128124 208.0073 44.128124 210.1323ZM50.253124 207.83542Q50.253124 206.91354 50.70625 206.27292Q51.175 205.6323 52.05 205.6323Q52.8625 205.6323 53.39375 206.21042Q53.925 206.78854 53.925 207.89792Q53.925 208.99167 53.378124 209.58542Q52.846874 210.16354 52.065624 210.16354Q51.284374 210.16354 50.76875 209.58542Q50.253124 209.0073 50.253124 207.83542ZM52.08125 206.35104Q51.690624 206.35104 51.425 206.6948Q51.175 207.03854 51.175 207.9448Q51.175 208.77292 51.425 209.11667Q51.690624 209.4448 52.08125 209.4448Q52.4875 209.4448 52.7375 209.10104Q53.003124 208.7573 53.003124 207.86667Q53.003124 207.02292 52.7375 206.6948Q52.471874 206.35104 52.08125 206.35104ZM52.08125 214.67917L56.784374 205.6323L57.64375 205.6323L52.95625 214.67917L52.08125 214.67917ZM55.8 212.35104Q55.8 211.42917 56.253124 210.78854Q56.721874 210.14792 57.6125 210.14792Q58.425 210.14792 58.95625 210.72604Q59.4875 211.28854 59.4875 212.41354Q59.4875 213.5073 58.940624 214.10104Q58.409374 214.67917 57.6125 214.67917Q56.846874 214.67917 56.315624 214.10104Q55.8 213.52292 55.8 212.35104ZM57.64375 210.86667Q57.2375 210.86667 56.971874 211.21042Q56.721874 211.55417 56.721874 212.46042Q56.721874 213.27292 56.9875 213.61667Q57.253124 213.96042 57.64375 213.96042Q58.034374 213.96042 58.3 213.61667Q58.565624 213.27292 58.565624 212.36667Q58.565624 211.53854 58.3 211.21042Q58.034374 210.86667 57.64375 210.86667Z" fill-rule="nonzero"/><path fill="#000000" d="M24.51875 146.84062L23.471874 146.91875Q23.33125 146.29375 23.08125 146.0125Q22.64375 145.55937 22.01875 145.55937Q21.51875 145.55937 21.128124 145.84062Q20.64375 146.21562 20.346874 146.91875Q20.065624 147.60625 20.05 148.8875Q20.425 148.30937 20.971874 148.02812Q21.534374 147.74687 22.14375 147.74687Q23.190624 147.74687 23.925 148.52812Q24.675 149.30937 24.675 150.52812Q24.675 151.34062 24.315624 152.04375Q23.971874 152.73125 23.3625 153.10625Q22.753124 153.46562 21.9875 153.46562Q20.659374 153.46562 19.83125 152.49687Q19.003124 151.52812 19.003124 149.30937Q19.003124 146.80937 19.925 145.68437Q20.721874 144.7 22.08125 144.7Q23.096874 144.7 23.7375 145.27812Q24.39375 145.84062 24.51875 146.84062ZM20.221874 150.54375Q20.221874 151.09062 20.440624 151.59062Q20.675 152.075 21.08125 152.34062Q21.503124 152.60625 21.971874 152.60625Q22.628124 152.60625 23.1125 152.075Q23.596874 151.52812 23.596874 150.60625Q23.596874 149.71562 23.1125 149.2Q22.64375 148.68437 21.925 148.68437Q21.20625 148.68437 20.70625 149.2Q20.221874 149.71562 20.221874 150.54375ZM26.05 149.09062Q26.05 147.55937 26.3625 146.6375Q26.675 145.7 27.284374 145.2Q27.909374 144.7 28.846874 144.7Q29.534374 144.7 30.05 144.98125Q30.58125 145.2625 30.925 145.79375Q31.26875 146.30937 31.45625 147.05937Q31.64375 147.80937 31.64375 149.09062Q31.64375 150.60625 31.33125 151.52812Q31.034374 152.45 30.409374 152.96562Q29.8 153.46562 28.846874 153.46562Q27.6125 153.46562 26.89375 152.575Q26.05 151.5125 26.05 149.09062ZM27.128124 149.09062Q27.128124 151.2 27.628124 151.90312Q28.128124 152.60625 28.846874 152.60625Q29.58125 152.60625 30.065624 151.90312Q30.565624 151.2 30.565624 149.09062Q30.565624 146.96562 30.065624 146.27812Q29.58125 145.575 28.83125 145.575Q28.1125 145.575 27.675 146.18437Q27.128124 146.96562 27.128124 149.09062ZM33.64375 153.325L33.64375 152.12187L34.846874 152.12187L34.846874 153.325L33.64375 153.325ZM36.05 149.09062Q36.05 147.55937 36.3625 146.6375Q36.675 145.7 37.284374 145.2Q37.909374 144.7 38.846874 144.7Q39.534374 144.7 40.05 144.98125Q40.58125 145.2625 40.925 145.79375Q41.26875 146.30937 41.45625 147.05937Q41.64375 147.80937 41.64375 149.09062Q41.64375 150.60625 41.33125 151.52812Q41.034374 152.45 40.409374 152.96562Q39.8 153.46562 38.846874 153.46562Q37.6125 153.46562 36.89375 152.575Q36.05 151.5125 36.05 149.09062ZM37.128124 149.09062Q37.128124 151.2 37.628124 151.90312Q38.128124 152.60625 38.846874 152.60625Q39.58125 152.60625 40.065624 151.90312Q40.565624 151.2 40.565624 149.09062Q40.565624 146.96562 40.065624 146.27812Q39.58125 145.575 38.83125 145.575Q38.1125 145.575 37.675 146.18437Q37.128124 146.96562 37.128124 149.09062ZM43.05 149.09062Q43.05 147.55937 43.3625 146.6375Q43.675 145.7 44.284374 145.2Q44.909374 144.7 45.846874 144.7Q46.534374 144.7 47.05 144.98125Q47.58125 145.2625 47.925 145.79375Q48.26875 146.30937 48.45625 147.05937Q48.64375 147.80937 48.64375 149.09062Q48.64375 150.60625 48.33125 151.52812Q48.034374 152.45 47.409374 152.96562Q46.8 153.46562 45.846874 153.46562Q44.6125 153.46562 43.89375 152.575Q43.05 151.5125 43.05 149.09062ZM44.128124 149.09062Q44.128124 151.2 44.628124 151.90312Q45.128124 152.60625 45.846874 152.60625Q46.58125 152.60625 47.065624 151.90312Q47.565624 151.2 47.565624 149.09062Q47.565624 146.96562 47.065624 146.27812Q46.58125 145.575 45.83125 145.575Q45.1125 145.575 44.675 146.18437Q44.128124 146.96562 44.128124 149.09062ZM50.253124 146.79375Q50.253124 145.87187 50.70625 145.23125Q51.175 144.59062 52.05 144.59062Q52.8625 144.59062 53.39375 145.16875Q53.925 145.74687 53.925 146.85625Q53.925 147.95 53.378124 148.54375Q52.846874 149.12187 52.065624 149.12187Q51.284374 149.12187 50.76875 148.54375Q50.253124 147.96562 50.253124 146.79375ZM52.08125 145.30937Q51.690624 145.30937 51.425 145.65312Q51.175 145.99687 51.175 146.90312Q51.175 147.73125 51.425 148.075Q51.690624 148.40312 52.08125 148.40312Q52.4875 148.40312 52.7375 148.05937Q53.003124 147.71562 53.003124 146.825Q53.003124 145.98125 52.7375 145.65312Q52.471874 145.30937 52.08125 145.30937ZM52.08125 153.6375L56.784374 144.59062L57.64375 144.59062L52.95625 153.6375L52.08125 153.6375ZM55.8 151.30937Q55.8 150.3875 56.253124 149.74687Q56.721874 149.10625 57.6125 149.10625Q58.425 149.10625 58.95625 149.68437Q59.4875 150.24687 59.4875 151.37187Q59.4875 152.46562 58.940624 153.05937Q58.409374 153.6375 57.6125 153.6375Q56.846874 153.6375 56.315624 153.05937Q55.8 152.48125 55.8 151.30937ZM57.64375 149.825Q57.2375 149.825 56.971874 150.16875Q56.721874 150.5125 56.721874 151.41875Q56.721874 152.23125 56.9875 152.575Q57.253124 152.91875 57.64375 152.91875Q58.034374 152.91875 58.3 152.575Q58.565624 152.23125 58.565624 151.325Q58.565624 150.49687 58.3 150.16875Q58.034374 149.825 57.64375 149.825Z" fill-rule="nonzero"/><path fill="#000000" d="M20.675 87.62708Q20.01875 87.37708 19.690624 86.93958Q19.378124 86.48646 19.378124 85.87708Q19.378124 84.93958 20.05 84.29896Q20.7375 83.65833 21.846874 83.65833Q22.971874 83.65833 23.659374 84.31458Q24.346874 84.97083 24.346874 85.90833Q24.346874 86.50208 24.034374 86.93958Q23.721874 87.37708 23.08125 87.62708Q23.878124 87.87708 24.284374 88.45521Q24.690624 89.03333 24.690624 89.83021Q24.690624 90.92396 23.909374 91.67396Q23.14375 92.42396 21.8625 92.42396Q20.596874 92.42396 19.815624 91.67396Q19.034374 90.92396 19.034374 89.79896Q19.034374 88.95521 19.45625 88.39271Q19.89375 87.83021 20.675 87.62708ZM20.45625 85.83021Q20.45625 86.43958 20.846874 86.83021Q21.253124 87.22083 21.878124 87.22083Q22.4875 87.22083 22.878124 86.84583Q23.26875 86.45521 23.26875 85.89271Q23.26875 85.31458 22.8625 84.92396Q22.45625 84.51771 21.8625 84.51771Q21.253124 84.51771 20.846874 84.90833Q20.45625 85.29896 20.45625 85.83021ZM20.128124 89.79896Q20.128124 90.25208 20.33125 90.67396Q20.55 91.09583 20.971874 91.33021Q21.39375 91.56458 21.878124 91.56458Q22.628124 91.56458 23.1125 91.08021Q23.6125 90.59583 23.6125 89.84583Q23.6125 89.08021 23.1125 88.58021Q22.6125 88.08021 21.846874 88.08021Q21.096874 88.08021 20.6125 88.58021Q20.128124 89.06458 20.128124 89.79896ZM26.05 88.04896Q26.05 86.51771 26.3625 85.59583Q26.675 84.65833 27.284374 84.15833Q27.909374 83.65833 28.846874 83.65833Q29.534374 83.65833 30.05 83.93958Q30.58125 84.22083 30.925 84.75208Q31.26875 85.26771 31.45625 86.01771Q31.64375 86.76771 31.64375 88.04896Q31.64375 89.56458 31.33125 90.48646Q31.034374 91.40833 30.409374 91.92396Q29.8 92.42396 28.846874 92.42396Q27.6125 92.42396 26.89375 91.53333Q26.05 90.47083 26.05 88.04896ZM27.128124 88.04896Q27.128124 90.15833 27.628124 90.86146Q28.128124 91.56458 28.846874 91.56458Q29.58125 91.56458 30.065624 90.86146Q30.565624 90.15833 30.565624 88.04896Q30.565624 85.92396 30.065624 85.23646Q29.58125 84.53333 28.83125 84.53333Q28.1125 84.53333 27.675 85.14271Q27.128124 85.92396 27.128124 88.04896ZM33.64375 92.28333L33.64375 91.08021L34.846874 91.08021L34.846874 92.28333L33.64375 92.28333ZM36.05 88.04896Q36.05 86.51771 36.3625 85.59583Q36.675 84.65833 37.284374 84.15833Q37.909374 83.65833 38.846874 83.65833Q39.534374 83.65833 40.05 83.93958Q40.58125 84.22083 40.925 84.75208Q41.26875 85.26771 41.45625 86.01771Q41.64375 86.76771 41.64375 88.04896Q41.64375 89.56458 41.33125 90.48646Q41.034374 91.40833 40.409374 91.92396Q39.8 92.42396 38.846874 92.42396Q37.6125 92.42396 36.89375 91.53333Q36.05 90.47083 36.05 88.04896ZM37.128124 88.04896Q37.128124 90.15833 37.628124 90.86146Q38.128124 91.56458 38.846874 91.56458Q39.58125 91.56458 40.065624 90.86146Q40.565624 90.15833 40.565624 88.04896Q40.565624 85.92396 40.065624 85.23646Q39.58125 84.53333 38.83125 84.53333Q38.1125 84.53333 37.675 85.14271Q37.128124 85.92396 37.128124 88.04896ZM43.05 88.04896Q43.05 86.51771 43.3625 85.59583Q43.675 84.65833 44.284374 84.15833Q44.909374 83.65833 45.846874 83.65833Q46.534374 83.65833 47.05 83.93958Q47.58125 84.22083 47.925 84.75208Q48.26875 85.26771 48.45625 86.01771Q48.64375 86.76771 48.64375 88.04896Q48.64375 89.56458 48.33125 90.48646Q48.034374 91.40833 47.409374 91.92396Q46.8 92.42396 45.846874 92.42396Q44.6125 92.42396 43.89375 91.53333Q43.05 90.47083 43.05 88.04896ZM44.128124 88.04896Q44.128124 90.15833 44.628124 90.86146Q45.128124 91.56458 45.846874 91.56458Q46.58125 91.56458 47.065624 90.86146Q47.565624 90.15833 47.565624 88.04896Q47.565624 85.92396 47.065624 85.23646Q46.58125 84.53333 45.83125 84.53333Q45.1125 84.53333 44.675 85.14271Q44.128124 85.92396 44.128124 88.04896ZM50.253124 85.75208Q50.253124 84.83021 50.70625 84.18958Q51.175 83.54896 52.05 83.54896Q52.8625 83.54896 53.39375 84.12708Q53.925 84.70521 53.925 85.81458Q53.925 86.90833 53.378124 87.50208Q52.846874 88.08021 52.065624 88.08021Q51.284374 88.08021 50.76875 87.50208Q50.253124 86.92396 50.253124 85.75208ZM52.08125 84.26771Q51.690624 84.26771 51.425 84.61146Q51.175 84.95521 51.175 85.86146Q51.175 86.68958 51.425 87.03333Q51.690624 87.36146 52.08125 87.36146Q52.4875 87.36146 52.7375 87.01771Q53.003124 86.67396 53.003124 85.78333Q53.003124 84.93958 52.7375 84.61146Q52.471874 84.26771 52.08125 84.26771ZM52.08125 92.59583L56.784374 83.54896L57.64375 83.54896L52.95625 92.59583L52.08125 92.59583ZM55.8 90.26771Q55.8 89.34583 56.253124 88.70521Q56.721874 88.06458 57.6125 88.06458Q58.425 88.06458 58.95625 88.64271Q59.4875 89.20521 59.4875 90.33021Q59.4875 91.42396 58.940624 92.01771Q58.409374 92.59583 57.6125 92.59583Q56.846874 92.59583 56.315624 92.01771Q55.8 91.43958 55.8 90.26771ZM57.64375 88.78333Q57.2375 88.78333 56.971874 89.12708Q56.721874 89.47083 56.721874 90.37708Q56.721874 91.18958 56.9875 91.53333Q57.253124 91.87708 57.64375 91.87708Q58.034374 91.87708 58.3 91.53333Q58.565624 91.18958 58.565624 90.28333Q58.565624 89.45521 58.3 89.12708Q58.034374 88.78333 57.64375 88.78333Z" fill-rule="nonzero"/><path fill="#000000" d="M213.50931 346.4344L214.63431 346.73126Q214.27493 348.1219 213.35306 348.85626Q212.43118 349.59064 211.08743 349.59064Q209.69681 349.59064 208.82181 349.02814Q207.94681 348.46564 207.49368 347.40314Q207.04056 346.325 207.04056 345.09064Q207.04056 343.7469 207.55618 342.7469Q208.07181 341.7469 209.00931 341.23126Q209.96243 340.71564 211.10306 340.71564Q212.38431 340.71564 213.25931 341.3719Q214.14993 342.02814 214.49368 343.21564L213.36868 343.48126Q213.07181 342.54376 212.49368 342.1219Q211.93118 341.6844 211.07181 341.6844Q210.08743 341.6844 209.41556 342.16876Q208.75931 342.6375 208.47806 343.4344Q208.21243 344.23126 208.21243 345.09064Q208.21243 346.1844 208.52493 346.9969Q208.85306 347.8094 209.52493 348.21564Q210.19681 348.6219 210.99368 348.6219Q211.94681 348.6219 212.60306 348.075Q213.27493 347.52814 213.50931 346.4344ZM219.32181 349.45L219.32181 347.3875L215.60306 347.3875L215.60306 346.41876L219.52493 340.85626L220.38431 340.85626L220.38431 346.41876L221.54056 346.41876L221.54056 347.3875L220.38431 347.3875L220.38431 349.45L219.32181 349.45ZM219.32181 346.41876L219.32181 342.5594L216.63431 346.41876L219.32181 346.41876Z" fill-rule="nonzero"/><path fill="#000000" d="M426.47507 349.45L426.47507 340.85626L427.63132 340.85626L432.14694 347.60626L432.14694 340.85626L433.2407 340.85626L433.2407 349.45L432.06882 349.45L427.5532 342.7L427.5532 349.45L426.47507 349.45ZM438.4282 349.45L438.4282 347.3875L434.70944 347.3875L434.70944 346.41876L438.63132 340.85626L439.4907 340.85626L439.4907 346.41876L440.64694 346.41876L440.64694 347.3875L439.4907 347.3875L439.4907 349.45L438.4282 349.45ZM438.4282 346.41876L438.4282 342.5594L435.7407 346.41876L438.4282 346.41876Z" fill-rule="nonzero"/><path fill="#4285f4" d="M196.0 56.916668C196.0 56.364384 196.44771 55.916668 197.0 55.916668L207.0 55.916668C207.55229 55.916668 208.0 56.364384 208.0 56.916668L208.0 66.916664C208.0 67.46895 207.55229 67.916664 207.0 67.916664L197.0 67.916664C196.44771 67.916664 196.0 67.46895 196.0 66.916664Z" fill-rule="nonzero"/><path fill="#1a1a1a" d="M217.125 65.916664L217.125 57.322914L218.25 57.322914L218.25 65.916664L217.125 65.916664ZM219.79688 65.916664L219.79688 59.697914L220.73438 59.697914L220.73438 60.572914Q221.42188 59.55729 222.71875 59.55729Q223.28125 59.55729 223.75 59.760414Q224.23438 59.96354 224.46875 60.291664Q224.70312 60.61979 224.79688 61.05729Q224.84375 61.354164 224.84375 62.08854L224.84375 65.916664L223.79688 65.916664L223.79688 62.135414Q223.79688 61.479164 223.67188 61.166664Q223.54688 60.854164 223.23438 60.666664Q222.92188 60.46354 222.5 60.46354Q221.82812 60.46354 221.32812 60.90104Q220.84375 61.322914 220.84375 62.510414L220.84375 65.916664L219.79688 65.916664ZM227.04688 65.916664L227.04688 60.510414L226.10938 60.510414L226.10938 59.697914L227.04688 59.697914L227.04688 59.02604Q227.04688 58.40104 227.15625 58.104164Q227.3125 57.68229 227.6875 57.43229Q228.07812 57.18229 228.76562 57.18229Q229.21875 57.18229 229.75 57.291664L229.59375 58.197914Q229.26562 58.15104 228.96875 58.15104Q228.48438 58.15104 228.28125 58.354164Q228.09375 58.55729 228.09375 59.11979L228.09375 59.697914L229.3125 59.697914L229.3125 60.510414L228.09375 60.510414L228.09375 65.916664L227.04688 65.916664ZM229.78125 65.916664L229.78125 59.697914L230.73438 59.697914L230.73438 60.635414Q231.09375 59.979164 231.39062 59.77604Q231.70312 59.55729 232.07812 59.55729Q232.60938 59.55729 233.15625 59.885414L232.79688 60.86979Q232.40625 60.635414 232.03125 60.635414Q231.67188 60.635414 231.39062 60.854164Q231.125 61.05729 231.01562 61.43229Q230.82812 61.99479 230.82812 62.65104L230.82812 65.916664L229.78125 65.916664ZM237.85938 65.15104Q237.26562 65.65104 236.71875 65.854164Q236.1875 66.05729 235.5625 66.05729Q234.53125 66.05729 233.98438 65.55729Q233.4375 65.05729 233.4375 64.27604Q233.4375 63.822914 233.64062 63.447914Q233.84375 63.05729 234.1875 62.83854Q234.53125 62.604164 234.95312 62.49479Q235.25 62.40104 235.89062 62.322914Q237.15625 62.18229 237.76562 61.96354Q237.76562 61.74479 237.76562 61.697914Q237.76562 61.041664 237.46875 60.77604Q237.0625 60.43229 236.26562 60.43229Q235.53125 60.43229 235.17188 60.697914Q234.8125 60.947914 234.64062 61.604164L233.60938 61.46354Q233.75 60.80729 234.07812 60.40104Q234.40625 59.99479 235.01562 59.77604Q235.625 59.55729 236.42188 59.55729Q237.21875 59.55729 237.71875 59.74479Q238.21875 59.93229 238.45312 60.21354Q238.6875 60.49479 238.78125 60.93229Q238.82812 61.197914 238.82812 61.90104L238.82812 63.30729Q238.82812 64.77604 238.89062 65.166664Q238.96875 65.55729 239.17188 65.916664L238.0625 65.916664Q237.90625 65.58854 237.85938 65.15104ZM237.76562 62.791664Q237.1875 63.02604 236.04688 63.197914Q235.39062 63.291664 235.125 63.416664Q234.85938 63.52604 234.70312 63.74479Q234.5625 63.96354 234.5625 64.24479Q234.5625 64.666664 234.875 64.947914Q235.20312 65.229164 235.8125 65.229164Q236.42188 65.229164 236.89062 64.96354Q237.375 64.697914 237.59375 64.229164Q237.76562 63.86979 237.76562 63.18229L237.76562 62.791664ZM240.375 64.05729L241.40625 63.90104Q241.5 64.52604 241.89062 64.854164Q242.29688 65.18229 243.03125 65.18229Q243.75 65.18229 244.09375 64.90104Q244.45312 64.604164 244.45312 64.197914Q244.45312 63.83854 244.14062 63.635414Q243.92188 63.49479 243.0625 63.27604Q241.90625 62.979164 241.45312 62.77604Q241.01562 62.55729 240.78125 62.18229Q240.54688 61.80729 240.54688 61.33854Q240.54688 60.93229 240.73438 60.572914Q240.92188 60.21354 241.25 59.979164Q241.5 59.80729 241.92188 59.68229Q242.34375 59.55729 242.84375 59.55729Q243.5625 59.55729 244.10938 59.77604Q244.67188 59.979164 244.9375 60.33854Q245.20312 60.697914 245.29688 61.291664L244.26562 61.43229Q244.20312 60.96354 243.85938 60.697914Q243.53125 60.416664 242.90625 60.416664Q242.1875 60.416664 241.875 60.666664Q241.5625 60.90104 241.5625 61.229164Q241.5625 61.43229 241.6875 61.58854Q241.82812 61.760414 242.09375 61.86979Q242.25 61.93229 243.03125 62.135414Q244.15625 62.447914 244.59375 62.635414Q245.03125 62.822914 245.28125 63.18229Q245.53125 63.541664 245.53125 64.08854Q245.53125 64.61979 245.21875 65.08854Q244.92188 65.541664 244.34375 65.80729Q243.76562 66.05729 243.03125 66.05729Q241.8125 66.05729 241.17188 65.55729Q240.54688 65.041664 240.375 64.05729ZM249.09375 64.979164L249.25 65.90104Q248.79688 65.99479 248.45312 65.99479Q247.875 65.99479 247.5625 65.822914Q247.25 65.635414 247.10938 65.33854Q246.98438 65.041664 246.98438 64.08854L246.98438 60.510414L246.21875 60.510414L246.21875 59.697914L246.98438 59.697914L246.98438 58.15104L248.03125 57.52604L248.03125 59.697914L249.09375 59.697914L249.09375 60.510414L248.03125 60.510414L248.03125 64.15104Q248.03125 64.604164 248.07812 64.729164Q248.14062 64.854164 248.26562 64.93229Q248.39062 65.010414 248.625 65.010414Q248.8125 65.010414 249.09375 64.979164ZM249.78125 65.916664L249.78125 59.697914L250.73438 59.697914L250.73438 60.635414Q251.09375 59.979164 251.39062 59.77604Q251.70312 59.55729 252.07812 59.55729Q252.60938 59.55729 253.15625 59.885414L252.79688 60.86979Q252.40625 60.635414 252.03125 60.635414Q251.67188 60.635414 251.39062 60.854164Q251.125 61.05729 251.01562 61.43229Q250.82812 61.99479 250.82812 62.65104L250.82812 65.916664L249.78125 65.916664ZM257.875 65.916664L257.875 64.99479Q257.14062 66.05729 255.89062 66.05729Q255.34375 66.05729 254.85938 65.854164Q254.39062 65.635414 254.15625 65.322914Q253.92188 64.99479 253.82812 64.52604Q253.76562 64.229164 253.76562 63.541664L253.76562 59.697914L254.82812 59.697914L254.82812 63.15104Q254.82812 63.96354 254.89062 64.260414Q254.98438 64.666664 255.29688 64.916664Q255.625 65.15104 256.10938 65.15104Q256.57812 65.15104 256.98438 64.916664Q257.40625 64.666664 257.57812 64.24479Q257.76562 63.822914 257.76562 63.02604L257.76562 59.697914L258.8125 59.697914L258.8125 65.916664L257.875 65.916664ZM264.85938 63.635414L265.89062 63.77604Q265.71875 64.83854 265.01562 65.447914Q264.3125 66.05729 263.29688 66.05729Q262.01562 66.05729 261.23438 65.229164Q260.46875 64.385414 260.46875 62.822914Q260.46875 61.822914 260.79688 61.072914Q261.14062 60.30729 261.8125 59.93229Q262.5 59.55729 263.3125 59.55729Q264.3125 59.55729 264.95312 60.072914Q265.60938 60.572914 265.79688 61.52604L264.76562 61.68229Q264.625 61.05729 264.25 60.74479Q263.875 60.416664 263.34375 60.416664Q262.54688 60.416664 262.04688 60.99479Q261.54688 61.55729 261.54688 62.791664Q261.54688 64.05729 262.03125 64.61979Q262.51562 65.18229 263.28125 65.18229Q263.90625 65.18229 264.3125 64.80729Q264.73438 64.43229 264.85938 63.635414ZM269.09375 64.979164L269.25 65.90104Q268.79688 65.99479 268.45312 65.99479Q267.875 65.99479 267.5625 65.822914Q267.25 65.635414 267.10938 65.33854Q266.98438 65.041664 266.98438 64.08854L266.98438 60.510414L266.21875 60.510414L266.21875 59.697914L266.98438 59.697914L266.98438 58.15104L268.03125 57.52604L268.03125 59.697914L269.09375 59.697914L269.09375 60.510414L268.03125 60.510414L268.03125 64.15104Q268.03125 64.604164 268.07812 64.729164Q268.14062 64.854164 268.26562 64.93229Q268.39062 65.010414 268.625 65.010414Q268.8125 65.010414 269.09375 64.979164ZM273.875 65.916664L273.875 64.99479Q273.14062 66.05729 271.89062 66.05729Q271.34375 66.05729 270.85938 65.854164Q270.39062 65.635414 270.15625 65.322914Q269.92188 64.99479 269.82812 64.52604Q269.76562 64.229164 269.76562 63.541664L269.76562 59.697914L270.82812 59.697914L270.82812 63.15104Q270.82812 63.96354 270.89062 64.260414Q270.98438 64.666664 271.29688 64.916664Q271.625 65.15104 272.10938 65.15104Q272.57812 65.15104 272.98438 64.916664Q273.40625 64.666664 273.57812 64.24479Q273.76562 63.822914 273.76562 63.02604L273.76562 59.697914L274.8125 59.697914L274.8125 65.916664L273.875 65.916664ZM276.78125 65.916664L276.78125 59.697914L277.73438 59.697914L277.73438 60.635414Q278.09375 59.979164 278.39062 59.77604Q278.70312 59.55729 279.07812 59.55729Q279.60938 59.55729 280.15625 59.885414L279.79688 60.86979Q279.40625 60.635414 279.03125 60.635414Q278.67188 60.635414 278.39062 60.854164Q278.125 61.05729 278.01562 61.43229Q277.82812 61.99479 277.82812 62.65104L277.82812 65.916664L276.78125 65.916664ZM285.04688 63.916664L286.14062 64.041664Q285.89062 64.99479 285.1875 65.52604Q284.48438 66.05729 283.40625 66.05729Q282.04688 66.05729 281.23438 65.21354Q280.4375 64.36979 280.4375 62.854164Q280.4375 61.291664 281.25 60.43229Q282.0625 59.55729 283.34375 59.55729Q284.59375 59.55729 285.375 60.40104Q286.17188 61.24479 286.17188 62.791664Q286.17188 62.885414 286.17188 63.072914L281.53125 63.072914Q281.59375 64.104164 282.10938 64.65104Q282.625 65.18229 283.40625 65.18229Q283.98438 65.18229 284.39062 64.885414Q284.8125 64.572914 285.04688 63.916664ZM281.59375 62.21354L285.0625 62.21354Q285.0 61.416664 284.67188 61.02604Q284.15625 60.416664 283.35938 60.416664Q282.625 60.416664 282.125 60.90104Q281.64062 61.385414 281.59375 62.21354ZM290.70312 59.385414Q290.70312 58.46354 291.15625 57.822914Q291.625 57.18229 292.5 57.18229Q293.3125 57.18229 293.84375 57.760414Q294.375 58.33854 294.375 59.447914Q294.375 60.541664 293.82812 61.135414Q293.29688 61.71354 292.51562 61.71354Q291.73438 61.71354 291.21875 61.135414Q290.70312 60.55729 290.70312 59.385414ZM292.53125 57.90104Q292.14062 57.90104 291.875 58.24479Q291.625 58.58854 291.625 59.49479Q291.625 60.322914 291.875 60.666664Q292.14062 60.99479 292.53125 60.99479Q292.9375 60.99479 293.1875 60.65104Q293.45312 60.30729 293.45312 59.416664Q293.45312 58.572914 293.1875 58.24479Q292.92188 57.90104 292.53125 57.90104ZM292.53125 66.229164L297.23438 57.18229L298.09375 57.18229L293.40625 66.229164L292.53125 66.229164ZM296.25 63.90104Q296.25 62.979164 296.70312 62.33854Q297.17188 61.697914 298.0625 61.697914Q298.875 61.697914 299.40625 62.27604Q299.9375 62.83854 299.9375 63.96354Q299.9375 65.05729 299.39062 65.65104Q298.85938 66.229164 298.0625 66.229164Q297.29688 66.229164 296.76562 65.65104Q296.25 65.072914 296.25 63.90104ZM298.09375 62.416664Q297.6875 62.416664 297.42188 62.760414Q297.17188 63.104164 297.17188 64.010414Q297.17188 64.822914 297.4375 65.166664Q297.70312 65.510414 298.09375 65.510414Q298.48438 65.510414 298.75 65.166664Q299.01562 64.822914 299.01562 63.916664Q299.01562 63.08854 298.75 62.760414Q298.48438 62.416664 298.09375 62.416664Z" fill-rule="nonzero"/><path fill="#ea4335" d="M317.0 56.916668C317.0 56.364384 317.44772 55.916668 318.0 55.916668L328.0 55.916668C328.55228 55.916668 329.0 56.364384 329.0 56.916668L329.0 66.916664C329.0 67.46895 328.55228 67.916664 328.0 67.916664L318.0 67.916664C317.44772 67.916664 317.0 67.46895 317.0 66.916664Z" fill-rule="nonzero"/><path fill="#1a1a1a" d="M337.875 65.916664L337.875 57.322914L339.01562 57.322914L339.01562 64.90104L343.25 64.90104L343.25 65.916664L337.875 65.916664ZM344.79688 58.541664L344.79688 57.322914L345.85938 57.322914L345.85938 58.541664L344.79688 58.541664ZM344.79688 65.916664L344.79688 59.697914L345.85938 59.697914L345.85938 65.916664L344.79688 65.916664ZM351.85938 63.635414L352.89062 63.77604Q352.71875 64.83854 352.01562 65.447914Q351.3125 66.05729 350.29688 66.05729Q349.01562 66.05729 348.23438 65.229164Q347.46875 64.385414 347.46875 62.822914Q347.46875 61.822914 347.79688 61.072914Q348.14062 60.30729 348.8125 59.93229Q349.5 59.55729 350.3125 59.55729Q351.3125 59.55729 351.95312 60.072914Q352.60938 60.572914 352.79688 61.52604L351.76562 61.68229Q351.625 61.05729 351.25 60.74479Q350.875 60.416664 350.34375 60.416664Q349.54688 60.416664 349.04688 60.99479Q348.54688 61.55729 348.54688 62.791664Q348.54688 64.05729 349.03125 64.61979Q349.51562 65.18229 350.28125 65.18229Q350.90625 65.18229 351.3125 64.80729Q351.73438 64.43229 351.85938 63.635414ZM358.04688 63.916664L359.14062 64.041664Q358.89062 64.99479 358.1875 65.52604Q357.48438 66.05729 356.40625 66.05729Q355.04688 66.05729 354.23438 65.21354Q353.4375 64.36979 353.4375 62.854164Q353.4375 61.291664 354.25 60.43229Q355.0625 59.55729 356.34375 59.55729Q357.59375 59.55729 358.375 60.40104Q359.17188 61.24479 359.17188 62.791664Q359.17188 62.885414 359.17188 63.072914L354.53125 63.072914Q354.59375 64.104164 355.10938 64.65104Q355.625 65.18229 356.40625 65.18229Q356.98438 65.18229 357.39062 64.885414Q357.8125 64.572914 358.04688 63.916664ZM354.59375 62.21354L358.0625 62.21354Q358.0 61.416664 357.67188 61.02604Q357.15625 60.416664 356.35938 60.416664Q355.625 60.416664 355.125 60.90104Q354.64062 61.385414 354.59375 62.21354ZM360.79688 65.916664L360.79688 59.697914L361.73438 59.697914L361.73438 60.572914Q362.42188 59.55729 363.71875 59.55729Q364.28125 59.55729 364.75 59.760414Q365.23438 59.96354 365.46875 60.291664Q365.70312 60.61979 365.79688 61.05729Q365.84375 61.354164 365.84375 62.08854L365.84375 65.916664L364.79688 65.916664L364.79688 62.135414Q364.79688 61.479164 364.67188 61.166664Q364.54688 60.854164 364.23438 60.666664Q363.92188 60.46354 363.5 60.46354Q362.82812 60.46354 362.32812 60.90104Q361.84375 61.322914 361.84375 62.510414L361.84375 65.916664L360.79688 65.916664ZM367.375 64.05729L368.40625 63.90104Q368.5 64.52604 368.89062 64.854164Q369.29688 65.18229 370.03125 65.18229Q370.75 65.18229 371.09375 64.90104Q371.45312 64.604164 371.45312 64.197914Q371.45312 63.83854 371.14062 63.635414Q370.92188 63.49479 370.0625 63.27604Q368.90625 62.979164 368.45312 62.77604Q368.01562 62.55729 367.78125 62.18229Q367.54688 61.80729 367.54688 61.33854Q367.54688 60.93229 367.73438 60.572914Q367.92188 60.21354 368.25 59.979164Q368.5 59.80729 368.92188 59.68229Q369.34375 59.55729 369.84375 59.55729Q370.5625 59.55729 371.10938 59.77604Q371.67188 59.979164 371.9375 60.33854Q372.20312 60.697914 372.29688 61.291664L371.26562 61.43229Q371.20312 60.96354 370.85938 60.697914Q370.53125 60.416664 369.90625 60.416664Q369.1875 60.416664 368.875 60.666664Q368.5625 60.90104 368.5625 61.229164Q368.5625 61.43229 368.6875 61.58854Q368.82812 61.760414 369.09375 61.86979Q369.25 61.93229 370.03125 62.135414Q371.15625 62.447914 371.59375 62.635414Q372.03125 62.822914 372.28125 63.18229Q372.53125 63.541664 372.53125 64.08854Q372.53125 64.61979 372.21875 65.08854Q371.92188 65.541664 371.34375 65.80729Q370.76562 66.05729 370.03125 66.05729Q368.8125 66.05729 368.17188 65.55729Q367.54688 65.041664 367.375 64.05729ZM373.79688 58.541664L373.79688 57.322914L374.85938 57.322914L374.85938 58.541664L373.79688 58.541664ZM373.79688 65.916664L373.79688 59.697914L374.85938 59.697914L374.85938 65.916664L373.79688 65.916664ZM376.79688 65.916664L376.79688 59.697914L377.73438 59.697914L377.73438 60.572914Q378.42188 59.55729 379.71875 59.55729Q380.28125 59.55729 380.75 59.760414Q381.23438 59.96354 381.46875 60.291664Q381.70312 60.61979 381.79688 61.05729Q381.84375 61.354164 381.84375 62.08854L381.84375 65.916664L380.79688 65.916664L380.79688 62.135414Q380.79688 61.479164 380.67188 61.166664Q380.54688 60.854164 380.23438 60.666664Q379.92188 60.46354 379.5 60.46354Q378.82812 60.46354 378.32812 60.90104Q377.84375 61.322914 377.84375 62.510414L377.84375 65.916664L376.79688 65.916664ZM383.59375 66.43229L384.625 66.58854Q384.6875 67.05729 384.98438 67.27604Q385.375 67.572914 386.04688 67.572914Q386.78125 67.572914 387.17188 67.27604Q387.57812 66.979164 387.71875 66.46354Q387.8125 66.135414 387.79688 65.104164Q387.10938 65.916664 386.07812 65.916664Q384.79688 65.916664 384.09375 64.99479Q383.39062 64.05729 383.39062 62.77604Q383.39062 61.885414 383.70312 61.135414Q384.03125 60.36979 384.64062 59.96354Q385.25 59.55729 386.07812 59.55729Q387.1875 59.55729 387.90625 60.447914L387.90625 59.697914L388.875 59.697914L388.875 65.072914Q388.875 66.52604 388.57812 67.135414Q388.28125 67.74479 387.64062 68.08854Q387.0 68.447914 386.0625 68.447914Q384.95312 68.447914 384.26562 67.947914Q383.57812 67.447914 383.59375 66.43229ZM384.46875 62.697914Q384.46875 63.916664 384.95312 64.479164Q385.4375 65.041664 386.17188 65.041664Q386.90625 65.041664 387.39062 64.479164Q387.89062 63.916664 387.89062 62.729164Q387.89062 61.58854 387.375 61.010414Q386.875 60.43229 386.15625 60.43229Q385.45312 60.43229 384.95312 61.010414Q384.46875 61.572914 384.46875 62.697914ZM393.70312 59.385414Q393.70312 58.46354 394.15625 57.822914Q394.625 57.18229 395.5 57.18229Q396.3125 57.18229 396.84375 57.760414Q397.375 58.33854 397.375 59.447914Q397.375 60.541664 396.82812 61.135414Q396.29688 61.71354 395.51562 61.71354Q394.73438 61.71354 394.21875 61.135414Q393.70312 60.55729 393.70312 59.385414ZM395.53125 57.90104Q395.14062 57.90104 394.875 58.24479Q394.625 58.58854 394.625 59.49479Q394.625 60.322914 394.875 60.666664Q395.14062 60.99479 395.53125 60.99479Q395.9375 60.99479 396.1875 60.65104Q396.45312 60.30729 396.45312 59.416664Q396.45312 58.572914 396.1875 58.24479Q395.92188 57.90104 395.53125 57.90104ZM395.53125 66.229164L400.23438 57.18229L401.09375 57.18229L396.40625 66.229164L395.53125 66.229164ZM399.25 63.90104Q399.25 62.979164 399.70312 62.33854Q400.17188 61.697914 401.0625 61.697914Q401.875 61.697914 402.40625 62.27604Q402.9375 62.83854 402.9375 63.96354Q402.9375 65.05729 402.39062 65.65104Q401.85938 66.229164 401.0625 66.229164Q400.29688 66.229164 399.76562 65.65104Q399.25 65.072914 399.25 63.90104ZM401.09375 62.416664Q400.6875 62.416664 400.42188 62.760414Q400.17188 63.104164 400.17188 64.010414Q400.17188 64.822914 400.4375 65.166664Q400.70312 65.510414 401.09375 65.510414Q401.48438 65.510414 401.75 65.166664Q402.01562 64.822914 402.01562 63.916664Q402.01562 63.08854 401.75 62.760414Q401.48438 62.416664 401.09375 62.416664Z" fill-rule="nonzero"/><path fill="#757575" d="M20.128124 37.55L20.128124 23.2375L26.471874 23.2375Q28.378124 23.2375 29.378124 23.628124Q30.378124 24.003124 30.971874 24.9875Q31.565624 25.95625 31.565624 27.14375Q31.565624 28.659374 30.58125 29.70625Q29.596874 30.753124 27.534374 31.034374Q28.284374 31.39375 28.675 31.753124Q29.503124 32.503124 30.253124 33.659374L32.7375 37.55L30.3625 37.55L28.45625 34.565624Q27.628124 33.284374 27.096874 32.596874Q26.565624 31.909374 26.128124 31.64375Q25.70625 31.3625 25.26875 31.253124Q24.940624 31.190624 24.221874 31.190624L22.01875 31.190624L22.01875 37.55L20.128124 37.55ZM22.01875 29.55L26.096874 29.55Q27.39375 29.55 28.1125 29.284374Q28.846874 29.01875 29.221874 28.425Q29.6125 27.83125 29.6125 27.14375Q29.6125 26.128124 28.878124 25.471874Q28.14375 24.815624 26.55 24.815624L22.01875 24.815624L22.01875 29.55ZM40.971874 34.20625L42.784374 34.440624Q42.3625 36.01875 41.190624 36.909374Q40.034374 37.784374 38.221874 37.784374Q35.95625 37.784374 34.6125 36.39375Q33.284374 34.9875 33.284374 32.45625Q33.284374 29.83125 34.628124 28.39375Q35.971874 26.940624 38.128124 26.940624Q40.20625 26.940624 41.51875 28.3625Q42.846874 29.76875 42.846874 32.346874Q42.846874 32.503124 42.83125 32.815624L35.096874 32.815624Q35.190624 34.51875 36.065624 35.425Q36.940624 36.33125 38.2375 36.33125Q39.20625 36.33125 39.878124 35.83125Q40.565624 35.315624 40.971874 34.20625ZM35.190624 31.3625L40.9875 31.3625Q40.878124 30.065624 40.33125 29.409374Q39.4875 28.39375 38.14375 28.39375Q36.940624 28.39375 36.1125 29.20625Q35.284374 30.003124 35.190624 31.3625ZM44.83125 37.55L44.83125 23.2375L46.58125 23.2375L46.58125 37.55L44.83125 37.55ZM55.64375 36.26875Q54.659374 37.096874 53.753124 37.440624Q52.846874 37.784374 51.815624 37.784374Q50.1125 37.784374 49.190624 36.95625Q48.26875 36.1125 48.26875 34.815624Q48.26875 34.05 48.6125 33.425Q48.971874 32.8 49.534374 32.425Q50.096874 32.034374 50.8 31.83125Q51.315624 31.70625 52.3625 31.565624Q54.4875 31.315624 55.4875 30.971874Q55.503124 30.6125 55.503124 30.503124Q55.503124 29.440624 55.003124 28.9875Q54.33125 28.39375 53.003124 28.39375Q51.753124 28.39375 51.159374 28.83125Q50.58125 29.26875 50.3 30.378124L48.58125 30.14375Q48.815624 29.034374 49.346874 28.3625Q49.878124 27.675 50.89375 27.315624Q51.909374 26.940624 53.253124 26.940624Q54.58125 26.940624 55.409374 27.253124Q56.2375 27.565624 56.628124 28.05Q57.01875 28.51875 57.175 29.2375Q57.26875 29.690624 57.26875 30.8625L57.26875 33.20625Q57.26875 35.659374 57.378124 36.315624Q57.4875 36.95625 57.83125 37.55L55.9875 37.55Q55.721874 37.003124 55.64375 36.26875ZM55.4875 32.346874Q54.534374 32.7375 52.6125 33.003124Q51.534374 33.159374 51.08125 33.3625Q50.64375 33.55 50.39375 33.925Q50.14375 34.3 50.14375 34.76875Q50.14375 35.471874 50.675 35.940624Q51.20625 36.409374 52.2375 36.409374Q53.253124 36.409374 54.034374 35.971874Q54.83125 35.51875 55.20625 34.753124Q55.4875 34.14375 55.4875 32.9875L55.4875 32.346874ZM63.70625 35.971874L63.95625 37.534374Q63.221874 37.690624 62.628124 37.690624Q61.675 37.690624 61.14375 37.39375Q60.628124 37.08125 60.409374 36.596874Q60.190624 36.096874 60.190624 34.51875L60.190624 28.55L58.909374 28.55L58.909374 27.175L60.190624 27.175L60.190624 24.6125L61.940624 23.55L61.940624 27.175L63.70625 27.175L63.70625 28.55L61.940624 28.55L61.940624 34.6125Q61.940624 35.3625 62.034374 35.58125Q62.128124 35.784374 62.33125 35.925Q62.55 36.05 62.940624 36.05Q63.221874 36.05 63.70625 35.971874ZM65.87813 25.253124L65.87813 23.2375L67.64375 23.2375L67.64375 25.253124L65.87813 25.253124ZM65.87813 37.55L65.87813 27.175L67.64375 27.175L67.64375 37.55L65.87813 37.55ZM72.75313 37.55L68.8 27.175L70.65938 27.175L72.89375 33.39375Q73.25313 34.39375 73.55 35.471874Q73.78438 34.659374 74.20625 33.503124L76.50313 27.175L78.31563 27.175L74.39375 37.55L72.75313 37.55ZM86.97188 34.20625L88.78438 34.440624Q88.3625 36.01875 87.19063 36.909374Q86.03438 37.784374 84.22188 37.784374Q81.95625 37.784374 80.6125 36.39375Q79.28438 34.9875 79.28438 32.45625Q79.28438 29.83125 80.62813 28.39375Q81.97188 26.940624 84.12813 26.940624Q86.20625 26.940624 87.51875 28.3625Q88.84688 29.76875 88.84688 32.346874Q88.84688 32.503124 88.83125 32.815624L81.09688 32.815624Q81.19063 34.51875 82.06563 35.425Q82.94063 36.33125 84.2375 36.33125Q85.20625 36.33125 85.87813 35.83125Q86.56563 35.315624 86.97188 34.20625ZM81.19063 31.3625L86.9875 31.3625Q86.87813 30.065624 86.33125 29.409374Q85.4875 28.39375 84.14375 28.39375Q82.94063 28.39375 82.1125 29.20625Q81.28438 30.003124 81.19063 31.3625ZM103.64375 33.753124L105.3625 33.971874Q105.08125 35.76875 103.90938 36.784374Q102.75313 37.784374 101.05 37.784374Q98.925 37.784374 97.62813 36.39375Q96.33125 35.003124 96.33125 32.409374Q96.33125 30.721874 96.87813 29.471874Q97.44063 28.20625 98.58125 27.58125Q99.72188 26.940624 101.06563 26.940624Q102.75313 26.940624 103.81563 27.8Q104.89375 28.659374 105.20625 30.221874L103.4875 30.4875Q103.25313 29.440624 102.62813 28.925Q102.00313 28.39375 101.12813 28.39375Q99.8 28.39375 98.97188 29.346874Q98.14375 30.3 98.14375 32.346874Q98.14375 34.440624 98.94063 35.39375Q99.7375 36.33125 101.03438 36.33125Q102.06563 36.33125 102.75313 35.70625Q103.45625 35.065624 103.64375 33.753124ZM106.22188 32.3625Q106.22188 29.4875 107.81563 28.096874Q109.15938 26.940624 111.08125 26.940624Q113.22188 26.940624 114.56563 28.346874Q115.925 29.753124 115.925 32.221874Q115.925 34.221874 115.33125 35.378124Q114.7375 36.51875 113.58125 37.159374Q112.44063 37.784374 111.08125 37.784374Q108.89375 37.784374 107.55 36.39375Q106.22188 34.9875 106.22188 32.3625ZM108.01875 32.3625Q108.01875 34.3625 108.87813 35.346874Q109.75313 36.33125 111.08125 36.33125Q112.39375 36.33125 113.25313 35.346874Q114.12813 34.346874 114.12813 32.3Q114.12813 30.378124 113.25313 29.39375Q112.37813 28.39375 111.08125 28.39375Q109.75313 28.39375 108.87813 29.39375Q108.01875 30.378124 108.01875 32.3625ZM117.15938 34.45625L118.90938 34.175Q119.05 35.221874 119.72188 35.784374Q120.39375 36.33125 121.59688 36.33125Q122.8 36.33125 123.37813 35.846874Q123.97188 35.346874 123.97188 34.690624Q123.97188 34.096874 123.45625 33.753124Q123.09688 33.51875 121.65938 33.159374Q119.72188 32.659374 118.97188 32.315624Q118.2375 31.95625 117.84688 31.33125Q117.45625 30.690624 117.45625 29.925Q117.45625 29.2375 117.76875 28.64375Q118.09688 28.05 118.64375 27.659374Q119.05 27.3625 119.75313 27.159374Q120.47188 26.940624 121.28438 26.940624Q122.50313 26.940624 123.425 27.3Q124.34688 27.64375 124.78438 28.253124Q125.22188 28.846874 125.39375 29.846874L123.675 30.08125Q123.55 29.284374 122.9875 28.846874Q122.425 28.39375 121.40938 28.39375Q120.19063 28.39375 119.675 28.8Q119.15938 29.190624 119.15938 29.721874Q119.15938 30.065624 119.37813 30.346874Q119.58125 30.628124 120.05 30.815624Q120.31563 30.909374 121.59688 31.253124Q123.47188 31.753124 124.20625 32.08125Q124.94063 32.39375 125.3625 33.003124Q125.78438 33.596874 125.78438 34.503124Q125.78438 35.378124 125.26875 36.159374Q124.75313 36.940624 123.78438 37.3625Q122.81563 37.784374 121.59688 37.784374Q119.58125 37.784374 118.51875 36.940624Q117.45625 36.096874 117.15938 34.45625ZM131.70625 35.971874L131.95625 37.534374Q131.22188 37.690624 130.62813 37.690624Q129.675 37.690624 129.14375 37.39375Q128.62813 37.08125 128.40938 36.596874Q128.19063 36.096874 128.19063 34.51875L128.19063 28.55L126.90938 28.55L126.90938 27.175L128.19063 27.175L128.19063 24.6125L129.94063 23.55L129.94063 27.175L131.70625 27.175L131.70625 28.55L129.94063 28.55L129.94063 34.6125Q129.94063 35.3625 130.03438 35.58125Q130.12813 35.784374 130.33125 35.925Q130.55 36.05 130.94063 36.05Q131.22188 36.05 131.70625 35.971874ZM139.22188 32.3625Q139.22188 29.4875 140.81563 28.096874Q142.15938 26.940624 144.08125 26.940624Q146.22188 26.940624 147.56563 28.346874Q148.925 29.753124 148.925 32.221874Q148.925 34.221874 148.33125 35.378124Q147.7375 36.51875 146.58125 37.159374Q145.44063 37.784374 144.08125 37.784374Q141.89375 37.784374 140.55 36.39375Q139.22188 34.9875 139.22188 32.3625ZM141.01875 32.3625Q141.01875 34.3625 141.87813 35.346874Q142.75313 36.33125 144.08125 36.33125Q145.39375 36.33125 146.25313 35.346874Q147.12813 34.346874 147.12813 32.3Q147.12813 30.378124 146.25313 29.39375Q145.37813 28.39375 144.08125 28.39375Q142.75313 28.39375 141.87813 29.39375Q141.01875 30.378124 141.01875 32.3625ZM151.28438 37.55L151.28438 28.55L149.7375 28.55L149.7375 27.175L151.28438 27.175L151.28438 26.08125Q151.28438 25.034374 151.47188 24.51875Q151.72188 23.83125 152.3625 23.409374Q153.00313 22.9875 154.15938 22.9875Q154.90938 22.9875 155.8 23.159374L155.53438 24.690624Q154.9875 24.596874 154.50313 24.596874Q153.70625 24.596874 153.3625 24.940624Q153.03438 25.284374 153.03438 26.221874L153.03438 27.175L155.06563 27.175L155.06563 28.55L153.03438 28.55L153.03438 37.55L151.28438 37.55ZM162.87813 25.253124L162.87813 23.2375L164.64375 23.2375L164.64375 25.253124L162.87813 25.253124ZM162.87813 37.55L162.87813 27.175L164.64375 27.175L164.64375 37.55L162.87813 37.55ZM166.8625 37.55L166.8625 27.175L168.45625 27.175L168.45625 28.659374Q169.59688 26.940624 171.75313 26.940624Q172.69063 26.940624 173.47188 27.284374Q174.26875 27.6125 174.65938 28.159374Q175.05 28.70625 175.20625 29.45625Q175.3 29.95625 175.3 31.175L175.3 37.55L173.53438 37.55L173.53438 31.2375Q173.53438 30.159374 173.33125 29.628124Q173.12813 29.096874 172.59688 28.784374Q172.08125 28.471874 171.37813 28.471874Q170.25313 28.471874 169.44063 29.190624Q168.62813 29.89375 168.62813 31.878124L168.62813 37.55L166.8625 37.55ZM178.28438 37.55L178.28438 28.55L176.7375 28.55L176.7375 27.175L178.28438 27.175L178.28438 26.08125Q178.28438 25.034374 178.47188 24.51875Q178.72188 23.83125 179.3625 23.409374Q180.00313 22.9875 181.15938 22.9875Q181.90938 22.9875 182.8 23.159374L182.53438 24.690624Q181.9875 24.596874 181.50313 24.596874Q180.70625 24.596874 180.3625 24.940624Q180.03438 25.284374 180.03438 26.221874L180.03438 27.175L182.06563 27.175L182.06563 28.55L180.03438 28.55L180.03438 37.55L178.28438 37.55ZM183.84688 37.55L183.84688 27.175L185.425 27.175L185.425 28.753124Q186.03438 27.64375 186.55 27.3Q187.06563 26.940624 187.675 26.940624Q188.56563 26.940624 189.4875 27.503124L188.87813 29.14375Q188.2375 28.753124 187.59688 28.753124Q187.01875 28.753124 186.55 29.1125Q186.09688 29.45625 185.89375 30.065624Q185.6125 31.003124 185.6125 32.1125L185.6125 37.55L183.84688 37.55ZM197.64375 36.26875Q196.65938 37.096874 195.75313 37.440624Q194.84688 37.784374 193.81563 37.784374Q192.1125 37.784374 191.19063 36.95625Q190.26875 36.1125 190.26875 34.815624Q190.26875 34.05 190.6125 33.425Q190.97188 32.8 191.53438 32.425Q192.09688 32.034374 192.8 31.83125Q193.31563 31.70625 194.3625 31.565624Q196.4875 31.315624 197.4875 30.971874Q197.50313 30.6125 197.50313 30.503124Q197.50313 29.440624 197.00313 28.9875Q196.33125 28.39375 195.00313 28.39375Q193.75313 28.39375 193.15938 28.83125Q192.58125 29.26875 192.3 30.378124L190.58125 30.14375Q190.81563 29.034374 191.34688 28.3625Q191.87813 27.675 192.89375 27.315624Q193.90938 26.940624 195.25313 26.940624Q196.58125 26.940624 197.40938 27.253124Q198.2375 27.565624 198.62813 28.05Q199.01875 28.51875 199.175 29.2375Q199.26875 29.690624 199.26875 30.8625L199.26875 33.20625Q199.26875 35.659374 199.37813 36.315624Q199.4875 36.95625 199.83125 37.55L197.9875 37.55Q197.72188 37.003124 197.64375 36.26875ZM197.4875 32.346874Q196.53438 32.7375 194.6125 33.003124Q193.53438 33.159374 193.08125 33.3625Q192.64375 33.55 192.39375 33.925Q192.14375 34.3 192.14375 34.76875Q192.14375 35.471874 192.675 35.940624Q193.20625 36.409374 194.2375 36.409374Q195.25313 36.409374 196.03438 35.971874Q196.83125 35.51875 197.20625 34.753124Q197.4875 34.14375 197.4875 32.9875L197.4875 32.346874ZM201.15938 34.45625L202.90938 34.175Q203.05 35.221874 203.72188 35.784374Q204.39375 36.33125 205.59688 36.33125Q206.8 36.33125 207.37813 35.846874Q207.97188 35.346874 207.97188 34.690624Q207.97188 34.096874 207.45625 33.753124Q207.09688 33.51875 205.65938 33.159374Q203.72188 32.659374 202.97188 32.315624Q202.2375 31.95625 201.84688 31.33125Q201.45625 30.690624 201.45625 29.925Q201.45625 29.2375 201.76875 28.64375Q202.09688 28.05 202.64375 27.659374Q203.05 27.3625 203.75313 27.159374Q204.47188 26.940624 205.28438 26.940624Q206.50313 26.940624 207.425 27.3Q208.34688 27.64375 208.78438 28.253124Q209.22188 28.846874 209.39375 29.846874L207.675 30.08125Q207.55 29.284374 206.9875 28.846874Q206.425 28.39375 205.40938 28.39375Q204.19063 28.39375 203.675 28.8Q203.15938 29.190624 203.15938 29.721874Q203.15938 30.065624 203.37813 30.346874Q203.58125 30.628124 204.05 30.815624Q204.31563 30.909374 205.59688 31.253124Q207.47188 31.753124 208.20625 32.08125Q208.94063 32.39375 209.3625 33.003124Q209.78438 33.596874 209.78438 34.503124Q209.78438 35.378124 209.26875 36.159374Q208.75313 36.940624 207.78438 37.3625Q206.81563 37.784374 205.59688 37.784374Q203.58125 37.784374 202.51875 36.940624Q201.45625 36.096874 201.15938 34.45625ZM215.70625 35.971874L215.95625 37.534374Q215.22188 37.690624 214.62813 37.690624Q213.675 37.690624 213.14375 37.39375Q212.62813 37.08125 212.40938 36.596874Q212.19063 36.096874 212.19063 34.51875L212.19063 28.55L210.90938 28.55L210.90938 27.175L212.19063 27.175L212.19063 24.6125L213.94063 23.55L213.94063 27.175L215.70625 27.175L215.70625 28.55L213.94063 28.55L213.94063 34.6125Q213.94063 35.3625 214.03438 35.58125Q214.12813 35.784374 214.33125 35.925Q214.55 36.05 214.94063 36.05Q215.22188 36.05 215.70625 35.971874ZM217.84688 37.55L217.84688 27.175L219.425 27.175L219.425 28.753124Q220.03438 27.64375 220.55 27.3Q221.06563 26.940624 221.675 26.940624Q222.56563 26.940624 223.4875 27.503124L222.87813 29.14375Q222.2375 28.753124 221.59688 28.753124Q221.01875 28.753124 220.55 29.1125Q220.09688 29.45625 219.89375 30.065624Q219.6125 31.003124 219.6125 32.1125L219.6125 37.55L217.84688 37.55ZM231.65938 37.55L231.65938 36.01875Q230.45625 37.784374 228.37813 37.784374Q227.45625 37.784374 226.65938 37.440624Q225.8625 37.08125 225.47188 36.55Q225.09688 36.01875 224.94063 35.2375Q224.83125 34.721874 224.83125 33.596874L224.83125 27.175L226.58125 27.175L226.58125 32.925Q226.58125 34.3 226.69063 34.784374Q226.8625 35.471874 227.39375 35.878124Q227.94063 36.26875 228.72188 36.26875Q229.51875 36.26875 230.20625 35.8625Q230.90938 35.45625 231.19063 34.76875Q231.4875 34.065624 231.4875 32.7375L231.4875 27.175L233.2375 27.175L233.2375 37.55L231.65938 37.55ZM242.64375 33.753124L244.3625 33.971874Q244.08125 35.76875 242.90938 36.784374Q241.75313 37.784374 240.05 37.784374Q237.925 37.784374 236.62813 36.39375Q235.33125 35.003124 235.33125 32.409374Q235.33125 30.721874 235.87813 29.471874Q236.44063 28.20625 237.58125 27.58125Q238.72188 26.940624 240.06563 26.940624Q241.75313 26.940624 242.81563 27.8Q243.89375 28.659374 244.20625 30.221874L242.4875 30.4875Q242.25313 29.440624 241.62813 28.925Q241.00313 28.39375 240.12813 28.39375Q238.8 28.39375 237.97188 29.346874Q237.14375 30.3 237.14375 32.346874Q237.14375 34.440624 237.94063 35.39375Q238.7375 36.33125 240.03438 36.33125Q241.06563 36.33125 241.75313 35.70625Q242.45625 35.065624 242.64375 33.753124ZM249.70625 35.971874L249.95625 37.534374Q249.22188 37.690624 248.62813 37.690624Q247.675 37.690624 247.14375 37.39375Q246.62813 37.08125 246.40938 36.596874Q246.19063 36.096874 246.19063 34.51875L246.19063 28.55L244.90938 28.55L244.90938 27.175L246.19063 27.175L246.19063 24.6125L247.94063 23.55L247.94063 27.175L249.70625 27.175L249.70625 28.55L247.94063 28.55L247.94063 34.6125Q247.94063 35.3625 248.03438 35.58125Q248.12813 35.784374 248.33125 35.925Q248.55 36.05 248.94063 36.05Q249.22188 36.05 249.70625 35.971874ZM258.65936 37.55L258.65936 36.01875Q257.45624 37.784374 255.37813 37.784374Q254.45625 37.784374 253.65938 37.440624Q252.8625 37.08125 252.47188 36.55Q252.09688 36.01875 251.94063 35.2375Q251.83125 34.721874 251.83125 33.596874L251.83125 27.175L253.58125 27.175L253.58125 32.925Q253.58125 34.3 253.69063 34.784374Q253.8625 35.471874 254.39375 35.878124Q254.94063 36.26875 255.72188 36.26875Q256.51874 36.26875 257.20624 35.8625Q257.90936 35.45625 258.1906 34.76875Q258.4875 34.065624 258.4875 32.7375L258.4875 27.175L260.2375 27.175L260.2375 37.55L258.65936 37.55ZM262.84686 37.55L262.84686 27.175L264.425 27.175L264.425 28.753124Q265.03436 27.64375 265.55 27.3Q266.0656 26.940624 266.675 26.940624Q267.5656 26.940624 268.4875 27.503124L267.8781 29.14375Q267.2375 28.753124 266.59686 28.753124Q266.01874 28.753124 265.55 29.1125Q265.09686 29.45625 264.89374 30.065624Q264.6125 31.003124 264.6125 32.1125L264.6125 37.55L262.84686 37.55ZM276.97186 34.20625L278.78436 34.440624Q278.3625 36.01875 277.1906 36.909374Q276.03436 37.784374 274.22186 37.784374Q271.95624 37.784374 270.6125 36.39375Q269.28436 34.9875 269.28436 32.45625Q269.28436 29.83125 270.6281 28.39375Q271.97186 26.940624 274.1281 26.940624Q276.20624 26.940624 277.51874 28.3625Q278.84686 29.76875 278.84686 32.346874Q278.84686 32.503124 278.83124 32.815624L271.09686 32.815624Q271.1906 34.51875 272.0656 35.425Q272.9406 36.33125 274.2375 36.33125Q275.20624 36.33125 275.8781 35.83125Q276.5656 35.315624 276.97186 34.20625ZM271.1906 31.3625L276.9875 31.3625Q276.8781 30.065624 276.33124 29.409374Q275.4875 28.39375 274.14374 28.39375Q272.9406 28.39375 272.1125 29.20625Q271.28436 30.003124 271.1906 31.3625ZM293.64374 36.26875Q292.65936 37.096874 291.7531 37.440624Q290.84686 37.784374 289.8156 37.784374Q288.1125 37.784374 287.1906 36.95625Q286.26874 36.1125 286.26874 34.815624Q286.26874 34.05 286.6125 33.425Q286.97186 32.8 287.53436 32.425Q288.09686 32.034374 288.8 31.83125Q289.3156 31.70625 290.3625 31.565624Q292.4875 31.315624 293.4875 30.971874Q293.5031 30.6125 293.5031 30.503124Q293.5031 29.440624 293.0031 28.9875Q292.33124 28.39375 291.0031 28.39375Q289.7531 28.39375 289.15936 28.83125Q288.58124 29.26875 288.3 30.378124L286.58124 30.14375Q286.8156 29.034374 287.34686 28.3625Q287.8781 27.675 288.89374 27.315624Q289.90936 26.940624 291.2531 26.940624Q292.58124 26.940624 293.40936 27.253124Q294.2375 27.565624 294.6281 28.05Q295.01874 28.51875 295.175 29.2375Q295.26874 29.690624 295.26874 30.8625L295.26874 33.20625Q295.26874 35.659374 295.3781 36.315624Q295.4875 36.95625 295.83124 37.55L293.9875 37.55Q293.72186 37.003124 293.64374 36.26875ZM293.4875 32.346874Q292.53436 32.7375 290.6125 33.003124Q289.53436 33.159374 289.08124 33.3625Q288.64374 33.55 288.39374 33.925Q288.14374 34.3 288.14374 34.76875Q288.14374 35.471874 288.675 35.940624Q289.20624 36.409374 290.2375 36.409374Q291.2531 36.409374 292.03436 35.971874Q292.83124 35.51875 293.20624 34.753124Q293.4875 34.14375 293.4875 32.9875L293.4875 32.346874ZM297.8625 37.55L297.8625 27.175L299.45624 27.175L299.45624 28.659374Q300.59686 26.940624 302.7531 26.940624Q303.6906 26.940624 304.47186 27.284374Q305.26874 27.6125 305.65936 28.159374Q306.05 28.70625 306.20624 29.45625Q306.3 29.95625 306.3 31.175L306.3 37.55L304.53436 37.55L304.53436 31.2375Q304.53436 30.159374 304.33124 29.628124Q304.1281 29.096874 303.59686 28.784374Q303.08124 28.471874 302.3781 28.471874Q301.2531 28.471874 300.4406 29.190624Q299.6281 29.89375 299.6281 31.878124L299.6281 37.55L297.8625 37.55ZM315.59686 37.55L315.59686 36.2375Q314.6125 37.784374 312.6906 37.784374Q311.45624 37.784374 310.40936 37.096874Q309.3781 36.409374 308.8 35.190624Q308.2375 33.971874 308.2375 32.378124Q308.2375 30.815624 308.7531 29.55Q309.26874 28.284374 310.3 27.6125Q311.34686 26.940624 312.6125 26.940624Q313.55 26.940624 314.28436 27.346874Q315.01874 27.7375 315.4875 28.3625L315.4875 23.2375L317.22186 23.2375L317.22186 37.55L315.59686 37.55ZM310.03436 32.378124Q310.03436 34.3625 310.8781 35.346874Q311.72186 36.33125 312.8625 36.33125Q314.01874 36.33125 314.8156 35.39375Q315.6281 34.45625 315.6281 32.51875Q315.6281 30.39375 314.8 29.39375Q313.9875 28.39375 312.78436 28.39375Q311.6125 28.39375 310.8156 29.3625Q310.03436 30.315624 310.03436 32.378124ZM325.83124 37.55L325.83124 23.2375L327.58124 23.2375L327.58124 37.55L325.83124 37.55ZM329.8781 25.253124L329.8781 23.2375L331.64374 23.2375L331.64374 25.253124L329.8781 25.253124ZM329.8781 37.55L329.8781 27.175L331.64374 27.175L331.64374 37.55L329.8781 37.55ZM340.64374 33.753124L342.3625 33.971874Q342.08124 35.76875 340.90936 36.784374Q339.7531 37.784374 338.05 37.784374Q335.925 37.784374 334.6281 36.39375Q333.33124 35.003124 333.33124 32.409374Q333.33124 30.721874 333.8781 29.471874Q334.4406 28.20625 335.58124 27.58125Q336.72186 26.940624 338.0656 26.940624Q339.7531 26.940624 340.8156 27.8Q341.89374 28.659374 342.20624 30.221874L340.4875 30.4875Q340.2531 29.440624 339.6281 28.925Q339.0031 28.39375 338.1281 28.39375Q336.8 28.39375 335.97186 29.346874Q335.14374 30.3 335.14374 32.346874Q335.14374 34.440624 335.9406 35.39375Q336.7375 36.33125 338.03436 36.33125Q339.0656 36.33125 339.7531 35.70625Q340.45624 35.065624 340.64374 33.753124ZM350.97186 34.20625L352.78436 34.440624Q352.3625 36.01875 351.1906 36.909374Q350.03436 37.784374 348.22186 37.784374Q345.95624 37.784374 344.6125 36.39375Q343.28436 34.9875 343.28436 32.45625Q343.28436 29.83125 344.6281 28.39375Q345.97186 26.940624 348.1281 26.940624Q350.20624 26.940624 351.51874 28.3625Q352.84686 29.76875 352.84686 32.346874Q352.84686 32.503124 352.83124 32.815624L345.09686 32.815624Q345.1906 34.51875 346.0656 35.425Q346.9406 36.33125 348.2375 36.33125Q349.20624 36.33125 349.8781 35.83125Q350.5656 35.315624 350.97186 34.20625ZM345.1906 31.3625L350.9875 31.3625Q350.8781 30.065624 350.33124 29.409374Q349.4875 28.39375 348.14374 28.39375Q346.9406 28.39375 346.1125 29.20625Q345.28436 30.003124 345.1906 31.3625ZM354.8625 37.55L354.8625 27.175L356.45624 27.175L356.45624 28.659374Q357.59686 26.940624 359.7531 26.940624Q360.6906 26.940624 361.47186 27.284374Q362.26874 27.6125 362.65936 28.159374Q363.05 28.70625 363.20624 29.45625Q363.3 29.95625 363.3 31.175L363.3 37.55L361.53436 37.55L361.53436 31.2375Q361.53436 30.159374 361.33124 29.628124Q361.1281 29.096874 360.59686 28.784374Q360.08124 28.471874 359.3781 28.471874Q358.2531 28.471874 357.4406 29.190624Q356.6281 29.89375 356.6281 31.878124L356.6281 37.55L354.8625 37.55ZM365.15936 34.45625L366.90936 34.175Q367.05 35.221874 367.72186 35.784374Q368.39374 36.33125 369.59686 36.33125Q370.8 36.33125 371.3781 35.846874Q371.97186 35.346874 371.97186 34.690624Q371.97186 34.096874 371.45624 33.753124Q371.09686 33.51875 369.65936 33.159374Q367.72186 32.659374 366.97186 32.315624Q366.2375 31.95625 365.84686 31.33125Q365.45624 30.690624 365.45624 29.925Q365.45624 29.2375 365.76874 28.64375Q366.09686 28.05 366.64374 27.659374Q367.05 27.3625 367.7531 27.159374Q368.47186 26.940624 369.28436 26.940624Q370.5031 26.940624 371.425 27.3Q372.34686 27.64375 372.78436 28.253124Q373.22186 28.846874 373.39374 29.846874L371.675 30.08125Q371.55 29.284374 370.9875 28.846874Q370.425 28.39375 369.40936 28.39375Q368.1906 28.39375 367.675 28.8Q367.15936 29.190624 367.15936 29.721874Q367.15936 30.065624 367.3781 30.346874Q367.58124 30.628124 368.05 30.815624Q368.3156 30.909374 369.59686 31.253124Q371.47186 31.753124 372.20624 32.08125Q372.9406 32.39375 373.3625 33.003124Q373.78436 33.596874 373.78436 34.503124Q373.78436 35.378124 373.26874 36.159374Q372.7531 36.940624 371.78436 37.3625Q370.8156 37.784374 369.59686 37.784374Q367.58124 37.784374 366.51874 36.940624Q365.45624 36.096874 365.15936 34.45625ZM375.8781 25.253124L375.8781 23.2375L377.64374 23.2375L377.64374 25.253124L375.8781 25.253124ZM375.8781 37.55L375.8781 27.175L377.64374 27.175L377.64374 37.55L375.8781 37.55ZM379.8625 37.55L379.8625 27.175L381.45624 27.175L381.45624 28.659374Q382.59686 26.940624 384.7531 26.940624Q385.6906 26.940624 386.47186 27.284374Q387.26874 27.6125 387.65936 28.159374Q388.05 28.70625 388.20624 29.45625Q388.3 29.95625 388.3 31.175L388.3 37.55L386.53436 37.55L386.53436 31.2375Q386.53436 30.159374 386.33124 29.628124Q386.1281 29.096874 385.59686 28.784374Q385.08124 28.471874 384.3781 28.471874Q383.2531 28.471874 382.4406 29.190624Q381.6281 29.89375 381.6281 31.878124L381.6281 37.55L379.8625 37.55ZM390.55 38.409374L392.2531 38.659374Q392.3625 39.45625 392.84686 39.815624Q393.5031 40.3 394.64374 40.3Q395.8625 40.3 396.51874 39.815624Q397.1906 39.33125 397.425 38.45625Q397.5656 37.909374 397.55 36.190624Q396.39374 37.55 394.675 37.55Q392.53436 37.55 391.3625 36.003124Q390.1906 34.45625 390.1906 32.3Q390.1906 30.815624 390.72186 29.565624Q391.26874 28.315624 392.28436 27.628124Q393.3156 26.940624 394.6906 26.940624Q396.51874 26.940624 397.72186 28.425L397.72186 27.175L399.33124 27.175L399.33124 36.14375Q399.33124 38.565624 398.83124 39.565624Q398.34686 40.58125 397.26874 41.159374Q396.20624 41.753124 394.64374 41.753124Q392.8 41.753124 391.64374 40.925Q390.5031 40.096874 390.55 38.409374ZM392.0031 32.175Q392.0031 34.221874 392.8156 35.159374Q393.6281 36.096874 394.84686 36.096874Q396.05 36.096874 396.8625 35.159374Q397.6906 34.221874 397.6906 32.2375Q397.6906 30.33125 396.84686 29.3625Q396.0031 28.39375 394.8156 28.39375Q393.64374 28.39375 392.8156 29.346874Q392.0031 30.3 392.0031 32.175Z" fill-rule="nonzero"/></svg>