<?xml version="1.0" encoding="UTF-8" standalone="no"?>
<!DOCTYPE svg PUBLIC "-//W3C//DTD SVG 1.1//EN" "http://www.w3.org/Graphics/SVG/1.1/DTD/svg11.dtd">
<!-- Generated by Microsoft Visio, SVG Export VM deallocation architecture.svg Page-1 -->
<svg xmlns="http://www.w3.org/2000/svg" xmlns:xlink="http://www.w3.org/1999/xlink" xmlns:ev="http://www.w3.org/2001/xml-events"
		xmlns:v="http://schemas.microsoft.com/visio/2003/SVGExtensions/" width="7.67438in" height="3.72162in"
		viewBox="0 0 552.555 267.957" xml:space="preserve" color-interpolation-filters="sRGB" class="st34">
	<v:documentProperties v:langID="1033" v:viewMarkup="false"/>

	<style type="text/css">
	<![CDATA[
		.st1 {fill:#ffffff;stroke:#d8d8d8;stroke-width:0.75}
		.st2 {marker-end:url(#mrkr4-8);stroke:#ff0000;stroke-linecap:round;stroke-linejoin:round;stroke-width:1}
		.st3 {fill:#ff0000;fill-opacity:1;stroke:#ff0000;stroke-opacity:1;stroke-width:0.28409090909091}
		.st4 {fill:#ffffff;stroke:none;stroke-linecap:butt;stroke-width:7.2}
		.st5 {fill:#ff0000;font-family:Calibri;font-size:0.666664em}
		.st6 {marker-end:url(#mrkr4-16);stroke:#00b050;stroke-linecap:round;stroke-linejoin:round;stroke-width:1}
		.st7 {fill:#00b050;fill-opacity:1;stroke:#00b050;stroke-opacity:1;stroke-width:0.28409090909091}
		.st8 {fill:#00b050;font-family:Calibri;font-size:0.666664em}
		.st9 {fill:#0078d7;stroke:none;stroke-width:2.66087}
		.st10 {marker-end:url(#mrkr1-38);stroke:#ff0000;stroke-width:6}
		.st11 {fill:#ff0000;fill-opacity:1;stroke:#ff0000;stroke-opacity:1;stroke-width:0.70422535211268}
		.st12 {marker-start:url(#mrkr1-58);stroke:#00b050;stroke-width:6}
		.st13 {fill:#00b050;fill-opacity:1;stroke:#00b050;stroke-opacity:1;stroke-width:0.70422535211268}
		.st14 {fill:#0072c6;stroke:none;stroke-width:0.75}
		.st15 {fill:#59b4d9;stroke:none;stroke-width:0.75}
		.st16 {fill:#59b4d9;stroke:none;stroke-width:0.749993}
		.st17 {fill:#b8d432;stroke:none;stroke-width:0.749993}
		.st18 {fill:#0078d7;stroke:none;stroke-width:0.75}
		.st19 {fill:none;stroke:#4672c4;stroke-width:0.75}
		.st20 {fill:#1f477d;font-family:Segoe UI Light;font-size:0.833336em}
		.st21 {fill:#0078d7;stroke:none;stroke-width:0.25}
		.st22 {fill:#0070c0;font-family:Segoe UI;font-size:0.666664em;font-weight:bold}
		.st23 {fill:#ffffff;stroke:#ebeff5;stroke-width:0.75}
		.st24 {fill:#759fcc;font-family:Segoe UI Light;font-size:0.833336em}
		.st25 {marker-end:url(#mrkr4-94);stroke:#4672c4;stroke-linecap:round;stroke-linejoin:round;stroke-width:1}
		.st26 {fill:#4672c4;fill-opacity:1;stroke:#4672c4;stroke-opacity:1;stroke-width:0.28409090909091}
		.st27 {marker-end:url(#mrkr4-100);stroke:#bdd0e9;stroke-linecap:round;stroke-linejoin:round;stroke-width:1}
		.st28 {fill:#bdd0e9;fill-opacity:1;stroke:#bdd0e9;stroke-opacity:1;stroke-width:0.28409090909091}
		.st29 {fill:#a6b6cd;font-family:Calibri;font-size:0.666664em}
		.st30 {font-size:1em}
		.st31 {marker-end:url(#mrkr4-124);stroke:#fec000;stroke-linecap:round;stroke-linejoin:round;stroke-width:1}
		.st32 {fill:#fec000;fill-opacity:1;stroke:#fec000;stroke-opacity:1;stroke-width:0.28409090909091}
		.st33 {fill:#dfa800;font-family:Calibri;font-size:0.666664em}
		.st34 {fill:none;fill-rule:evenodd;font-size:12px;overflow:visible;stroke-linecap:square;stroke-miterlimit:3}
	]]>
	</style>

	<defs id="Markers">
		<g id="lend4">
			<path d="M 2 1 L 0 0 L 2 -1 L 2 1 " style="stroke:none"/>
		</g>
		<marker id="mrkr4-8" class="st3" v:arrowType="4" v:arrowSize="2" v:setback="7.04" refX="-7.04" orient="auto"
				markerUnits="strokeWidth" overflow="visible">
			<use xlink:href="#lend4" transform="scale(-3.52,-3.52) "/>
		</marker>
		<marker id="mrkr4-16" class="st7" v:arrowType="4" v:arrowSize="2" v:setback="7.04" refX="-7.04" orient="auto"
				markerUnits="strokeWidth" overflow="visible">
			<use xlink:href="#lend4" transform="scale(-3.52,-3.52) "/>
		</marker>
		<g id="lend1">
			<path d="M 1 -1 L 0 0 L 1 1 " style="stroke-linecap:round;stroke-linejoin:round;fill:none"/>
		</g>
		<marker id="mrkr1-38" class="st11" v:arrowType="1" v:arrowSize="2" orient="auto" markerUnits="strokeWidth"
				overflow="visible">
			<use xlink:href="#lend1" transform="scale(-1.42,-1.42) "/>
		</marker>
		<marker id="mrkr1-58" class="st13" v:arrowType="1" v:arrowSize="2" orient="auto" markerUnits="strokeWidth"
				overflow="visible">
			<use xlink:href="#lend1" transform="scale(1.42) "/>
		</marker>
		<marker id="mrkr4-94" class="st26" v:arrowType="4" v:arrowSize="2" v:setback="7.04" refX="-7.04" orient="auto"
				markerUnits="strokeWidth" overflow="visible">
			<use xlink:href="#lend4" transform="scale(-3.52,-3.52) "/>
		</marker>
		<marker id="mrkr4-100" class="st28" v:arrowType="4" v:arrowSize="2" v:setback="7.04" refX="-7.04" orient="auto"
				markerUnits="strokeWidth" overflow="visible">
			<use xlink:href="#lend4" transform="scale(-3.52,-3.52) "/>
		</marker>
		<marker id="mrkr4-124" class="st32" v:arrowType="4" v:arrowSize="2" v:setback="7.04" refX="-7.04" orient="auto"
				markerUnits="strokeWidth" overflow="visible">
			<use xlink:href="#lend4" transform="scale(-3.52,-3.52) "/>
		</marker>
	</defs>
	<g v:mID="0" v:index="1" v:groupContext="foregroundPage">
		<title>Page-1</title>
		<v:pageProperties v:drawingScale="0.0393701" v:pageScale="0.0393701" v:drawingUnits="24" v:shadowOffsetX="9"
				v:shadowOffsetY="-9"/>
		<v:layer v:name="Connector" v:index="0"/>
		<g id="shape1157-1" v:mID="1157" v:groupContext="shape" transform="translate(0.75,-0.75)">
			<title>Sheet.1157</title>
			<rect x="0" y="1.49999" width="551.055" height="266.457" rx="5.66929" ry="5.66929" class="st1"/>
		</g>
		<g id="shape1015-3" v:mID="1015" v:groupContext="shape" v:layerMember="0" transform="translate(127.742,-207.679)">
			<title>Dynamic connector</title>
			<desc>Deallocate</desc>
			<v:textBlock v:margins="rect(4,4,4,4)" v:tabSpace="42.5197"/>
			<v:textRect cx="24.2195" cy="259.453" width="44.32" height="17.6036"/>
			<path d="M0 267.96 L34.3 267.96 L34.3 299.14 L64.39 299.14" class="st2"/>
			<rect v:rectContext="textBkgnd" x="6.96995" y="254.653" width="34.4993" height="9.59985" class="st4"/>
			<text x="6.97" y="261.85" class="st5" v:langID="1031"><v:paragraph v:horizAlign="1"/><v:tabList/>Deallocate</text>		</g>
		<g id="shape1016-11" v:mID="1016" v:groupContext="shape" v:layerMember="0" transform="translate(128.903,-135.396)">
			<title>Dynamic connector.1016</title>
			<desc>Start</desc>
			<v:textBlock v:margins="rect(4,4,4,4)" v:tabSpace="42.5197"/>
			<v:textRect cx="26.3839" cy="252.366" width="40" height="17.6036"/>
			<path d="M0 267.96 L7.82 267.96 L7.82 246.7 L63.23 246.7" class="st6"/>
			<rect v:rectContext="textBkgnd" x="18.5559" y="247.566" width="15.6561" height="9.59985" class="st4"/>
			<text x="18.56" y="254.77" class="st8" v:langID="1031"><v:paragraph v:horizAlign="1"/><v:tabList/>Start</text>		</g>
		<g id="group1099-19" transform="translate(83.5216,-189.254)" v:mID="1099" v:groupContext="group">
			<title>Sheet.1099</title>
			<g id="group1100-20" v:mID="1100" v:groupContext="group">
				<title>Sheet.1100</title>
				<g id="shape1101-21" v:mID="1101" v:groupContext="shape">
					<title>Sheet.1101</title>
					<path d="M39.93 228.71 L2.28 228.71 C1.02 228.71 0 229.85 0 231.1 L0 257.38 C0 258.63 1.02 259.77 2.28 259.77
								 L15.13 259.77 C16.5 264.66 14.68 265.34 6.48 265.34 L6.48 267.96 L16.84 267.96 L24.46 267.96 L34.24
								 267.96 L34.24 265.34 C26.05 265.34 25.25 264.66 26.62 259.77 L39.93 259.77 C41.18 259.77 42.55 258.63
								 42.55 257.38 L42.55 231.1 C42.55 229.85 41.18 228.71 39.93 228.71 ZM39.25 231.89 L39.25 256.47 L3.19
								 256.47 L3.19 231.89 L39.25 231.89 Z" class="st9"/>
				</g>
				<g id="group1102-23" transform="translate(13.5489,-15.8468)" v:mID="1102" v:groupContext="group">
					<title>Sheet.1102</title>
					<g id="group1103-24" transform="translate(0.646728,-8.59119)" v:mID="1103" v:groupContext="group">
						<title>Sheet.1103</title>
						<g id="shape1104-25" v:mID="1104" v:groupContext="shape">
							<title>Sheet.1104</title>
							<path d="M13.2 264.09 L6.6 260.33 L0 264.09 L0 264.2 L6.6 267.96 L13.2 264.09 Z" class="st9"/>
						</g>
					</g>
					<g id="group1105-27" transform="translate(7.9547,-1.13687E-13)" v:mID="1105" v:groupContext="group">
						<title>Sheet.1105</title>
						<g id="shape1106-28" v:mID="1106" v:groupContext="shape">
							<title>Sheet.1106</title>
							<path d="M0 260.45 L0 267.96 L6.6 264.2 L6.6 256.69 L0 260.45 Z" class="st9"/>
						</g>
					</g>
					<g id="group1107-30" v:mID="1107" v:groupContext="group">
						<title>Sheet.1107</title>
						<g id="shape1108-31" v:mID="1108" v:groupContext="shape">
							<title>Sheet.1108</title>
							<path d="M6.6 260.45 L0 256.69 L0 264.2 L6.6 267.96 L6.6 260.45 Z" class="st9"/>
						</g>
					</g>
				</g>
			</g>
		</g>
		<g id="shape1109-33" v:mID="1109" v:groupContext="shape" v:layerMember="0" transform="translate(111.895,-210.514)">
			<title>Dynamic connector.1109</title>
			<path d="M7.09 267.96 L7.09 290.51" class="st10"/>
		</g>
		<g id="group1110-39" transform="translate(83.5484,-102.723)" v:mID="1110" v:groupContext="group">
			<title>Sheet.1110</title>
			<g id="group1111-40" v:mID="1111" v:groupContext="group">
				<title>Sheet.1111</title>
				<g id="shape1112-41" v:mID="1112" v:groupContext="shape">
					<title>Sheet.1112</title>
					<path d="M39.93 228.71 L2.28 228.71 C1.02 228.71 0 229.85 0 231.1 L0 257.38 C0 258.63 1.02 259.77 2.28 259.77
								 L15.13 259.77 C16.5 264.66 14.68 265.34 6.48 265.34 L6.48 267.96 L16.84 267.96 L24.46 267.96 L34.24
								 267.96 L34.24 265.34 C26.05 265.34 25.25 264.66 26.62 259.77 L39.93 259.77 C41.18 259.77 42.55 258.63
								 42.55 257.38 L42.55 231.1 C42.55 229.85 41.18 228.71 39.93 228.71 ZM39.25 231.89 L39.25 256.47 L3.19
								 256.47 L3.19 231.89 L39.25 231.89 Z" class="st9"/>
				</g>
				<g id="group1113-43" transform="translate(13.5489,-15.8468)" v:mID="1113" v:groupContext="group">
					<title>Sheet.1113</title>
					<g id="group1114-44" transform="translate(0.646728,-8.59119)" v:mID="1114" v:groupContext="group">
						<title>Sheet.1114</title>
						<g id="shape1115-45" v:mID="1115" v:groupContext="shape">
							<title>Sheet.1115</title>
							<path d="M13.2 264.09 L6.6 260.33 L0 264.09 L0 264.2 L6.6 267.96 L13.2 264.09 Z" class="st9"/>
						</g>
					</g>
					<g id="group1116-47" transform="translate(7.9547,-1.13687E-13)" v:mID="1116" v:groupContext="group">
						<title>Sheet.1116</title>
						<g id="shape1117-48" v:mID="1117" v:groupContext="shape">
							<title>Sheet.1117</title>
							<path d="M0 260.45 L0 267.96 L6.6 264.2 L6.6 256.69 L0 260.45 Z" class="st9"/>
						</g>
					</g>
					<g id="group1118-50" v:mID="1118" v:groupContext="group">
						<title>Sheet.1118</title>
						<g id="shape1119-51" v:mID="1119" v:groupContext="shape">
							<title>Sheet.1119</title>
							<path d="M6.6 260.45 L0 256.69 L0 264.2 L6.6 267.96 L6.6 260.45 Z" class="st9"/>
						</g>
					</g>
				</g>
			</g>
		</g>
		<g id="shape1120-53" v:mID="1120" v:groupContext="shape" v:layerMember="0" transform="translate(111.922,-123.982)">
			<title>Dynamic connector.1120</title>
			<path d="M7.09 267.96 L7.09 290.51" class="st12"/>
		</g>
		<g id="group1121-59" transform="translate(201.371,-146.409)" v:mID="1121" v:groupContext="group">
			<title>Sheet.1121</title>
			<g id="shape1122-60" v:mID="1122" v:groupContext="shape" transform="translate(5.25,-10.5)">
				<title>Sheet.1122</title>
				<path d="M24 257.46 L24 255.96 L12.75 255.96 L12.75 255.95 L7.49 261.21 L3.61 261.21 L12.61 252.21 L18.75 252.21
							 L18.75 250.71 L12 250.71 L12 250.71 L11.99 250.71 L1.49 261.21 L0 261.21 L0 262.71 L4.5 262.71 L9.75
							 267.96 L9.75 267.96 L22.5 267.96 L22.5 266.46 L10.37 266.46 L6.62 262.71 L15.75 262.71 L15.75 261.21
							 L9.61 261.21 L13.36 257.46 L24 257.46 Z" class="st14"/>
			</g>
			<g id="shape1123-62" v:mID="1123" v:groupContext="shape" transform="translate(20.325,-14.325)">
				<title>Sheet.1123</title>
				<ellipse cx="2.175" cy="265.782" rx="2.175" ry="2.175" class="st15"/>
			</g>
			<g id="shape1124-64" v:mID="1124" v:groupContext="shape" transform="translate(-164.724,54.5586) rotate(-45)">
				<title>Sheet.1124</title>
				<ellipse cx="2.17498" cy="265.782" rx="2.17498" ry="2.17498" class="st16"/>
			</g>
			<g id="shape1125-66" v:mID="1125" v:groupContext="shape" transform="translate(-159.474,59.8086) rotate(-45)">
				<title>Sheet.1125</title>
				<ellipse cx="2.17498" cy="265.782" rx="2.17498" ry="2.17498" class="st17"/>
			</g>
			<g id="shape1126-68" v:mID="1126" v:groupContext="shape" transform="translate(-161.724,70.3085) rotate(-45)">
				<title>Sheet.1126</title>
				<ellipse cx="2.17498" cy="265.782" rx="2.17498" ry="2.17498" class="st17"/>
			</g>
			<g id="shape1127-70" v:mID="1127" v:groupContext="shape" transform="translate(0,-28.725)">
				<title>Sheet.1127</title>
				<path d="M0.6 259.18 C0.22 259.18 0 259.41 0 259.78 L0 267.28 C0 267.66 0.22 267.88 0.6 267.88 L4.36 267.88 C4.73
							 267.88 4.96 267.66 4.96 267.28 L4.96 264.21 L32.53 264.21 L32.53 267.36 C32.53 267.73 32.75 267.96 33.28
							 267.96 L36.89 267.96 C37.26 267.96 37.49 267.73 37.49 267.36 L37.49 263.61 L37.49 259.86 C37.56 259.41
							 37.34 259.18 36.96 259.18 L0.6 259.18 Z" class="st14"/>
			</g>
			<g id="shape1128-72" v:mID="1128" v:groupContext="shape">
				<title>Sheet.1128</title>
				<path d="M36.9 267.96 C37.28 267.96 37.5 267.73 37.5 267.36 L37.5 260.01 C37.5 259.63 37.28 259.41 36.9 259.41 L33.3
							 259.41 C32.93 259.41 32.7 259.63 32.7 260.01 L32.7 263.01 L5.03 263.01 L5.03 259.86 C5.03 259.48 4.8
							 259.26 4.28 259.26 L0.6 259.26 C0.23 259.26 0 259.48 0 260.01 L0 267.36 C0 267.73 0.23 267.96 0.6 267.96
							 L36.9 267.96 Z" class="st14"/>
			</g>
		</g>
		<g id="group1129-74" transform="translate(274.231,-154.247)" v:mID="1129" v:groupContext="group">
			<title>Sheet.1129</title>
			<g id="group1130-75" v:mID="1130" v:groupContext="group">
				<title>Page-1</title>
				<g id="group1131-76" v:mID="1131" v:groupContext="group">
					<title>Sheet.1131</title>
					<g id="shape1132-77" v:mID="1132" v:groupContext="shape">
						<title>Sheet.1132</title>
						<path d="M23.68 246.13 L23.74 247.59 C24.19 247.59 24.46 247.71 24.69 247.93 C24.86 248.16 24.97 248.55 24.97
									 249.06 L24.97 254.63 C24.97 255.92 25.42 256.71 26.21 257.04 C25.36 257.38 24.97 258.17 24.97
									 259.47 L24.97 265.09 C24.97 266.04 24.52 266.49 23.68 266.49 L23.68 267.96 C24.86 267.96 25.71
									 267.73 26.21 267.28 C26.72 266.83 26.94 266.04 26.94 264.98 L26.94 259.29 C26.94 258.28 27.34
									 257.78 28.12 257.78 L28.12 256.32 C27.34 256.32 26.94 255.81 26.94 254.85 L26.94 249 C26.94
									 247.93 26.72 247.2 26.21 246.75 C25.71 246.36 24.86 246.13 23.68 246.13 ZM17.1 263.85 C17.1
									 264.47 17.61 264.98 18.22 264.98 L20.81 264.98 C21.43 264.98 21.94 264.47 21.94 263.85 L21.94
									 261.27 C21.94 260.64 21.43 260.14 20.81 260.14 L20.2 260.14 L20.2 259.18 C20.2 258.06 19.3 257.04
									 18 256.65 L15.64 256.14 C15.13 255.99 14.76 255.72 14.58 255.41 C14.61 255.26 14.62 255.12 14.62
									 254.97 L14.62 254.85 L14.62 253.22 L15.36 253.22 C15.97 253.22 16.48 252.72 16.48 252.09 L16.48
									 249.12 C16.48 248.49 15.97 247.99 15.36 247.99 L12.37 247.99 C11.76 247.99 11.25 248.49 11.25
									 249.12 L11.25 252.09 C11.25 252.72 11.76 253.22 12.37 253.22 L13.05 253.22 L13.05 254.85 L13.05
									 254.97 C13.05 255.12 13.06 255.26 13.09 255.41 C12.91 255.72 12.55 255.99 12.04 256.14 L10.12
									 256.54 C8.83 256.93 7.93 257.94 7.93 259.07 L7.93 260.03 L7.31 260.03 C6.7 260.03 6.19 260.53
									 6.19 261.15 L6.19 263.74 C6.19 264.36 6.7 264.87 7.31 264.87 L9.9 264.87 C10.52 264.87 11.02
									 264.36 11.02 263.74 L11.02 261.15 C11.02 260.53 10.52 260.03 9.9 260.03 L9.34 260.03 L9.34 259.07
									 C9.34 258.57 9.79 258.12 10.52 257.89 L12.43 257.44 C12.98 257.29 13.46 257.03 13.83 256.68
									 C14.2 257.04 14.68 257.32 15.24 257.49 L17.61 258 C18.34 258.23 18.79 258.68 18.79 259.18 L18.79
									 260.14 L18.22 260.14 C17.61 260.14 17.1 260.64 17.1 261.27 L17.1 263.85 ZM14.91 249.57 L14.91
									 251.64 L12.82 251.64 L12.82 249.57 L14.91 249.57 ZM4.44 267.96 L4.39 266.49 C3.94 266.49 3.65
									 266.38 3.43 266.16 C3.26 265.93 3.15 265.54 3.15 265.03 L3.15 259.47 C3.15 258.17 2.7 257.38
									 1.91 257.04 C2.75 256.71 3.15 255.92 3.15 254.63 L3.15 249 C3.15 248.04 3.6 247.59 4.44 247.59
									 L4.44 246.13 C3.26 246.13 2.41 246.3 1.91 246.75 C1.41 247.2 1.18 247.99 1.18 249.06 L1.18 254.79
									 C1.18 255.81 0.79 256.32 0 256.32 L0 257.78 C0.79 257.78 1.18 258.28 1.18 259.24 L1.18 265.09
									 C1.18 266.16 1.41 266.89 1.91 267.34 C2.41 267.73 3.26 267.96 4.44 267.96 Z" class="st18"/>
					</g>
				</g>
			</g>
		</g>
		<g id="group1133-79" transform="translate(376.774,-107.186)" v:mID="1133" v:groupContext="group">
			<title>Sheet.1133</title>
			<g id="shape171-80" v:mID="171" v:groupContext="shape">
				<title>Sheet.171</title>
				<desc>Log Analytics</desc>
				<v:textBlock v:margins="rect(4,4,4,4)" v:tabSpace="42.5197" v:verticalAlign="0"/>
				<v:textRect cx="70.5076" cy="203.537" width="141.02" height="128.84"/>
				<rect x="0" y="139.117" width="141.015" height="128.84" rx="5.66929" ry="5.66929" class="st19"/>
				<text x="42.99" y="152.12" class="st20" v:langID="1031"><v:paragraph v:horizAlign="1"/><v:tabList/>Log Analytics</text>			</g>
			<g id="shape172-83" v:mID="172" v:groupContext="shape" transform="translate(53.5777,-64.3078)">
				<title>Operational Insights.172</title>
				<desc>Workspace</desc>
				<v:textBlock v:margins="rect(0,0,0,0)" v:tabSpace="42.5197" v:verticalAlign="0"/>
				<v:textRect cx="13.3786" cy="287.03" width="68.06" height="33.8598"/>
				<path d="M3.39 254.41 L5.64 254.41 L5.64 252.16 L3.39 252.16 L3.39 254.41 ZM3.39 247.64 L5.64 247.64 L5.64 245.61
							 C4.85 246.06 4.06 246.51 3.39 247.08 L3.39 247.64 ZM6.77 261.18 L9.03 261.18 L9.03 258.93 L6.77 258.93
							 L6.77 261.18 ZM6.77 267.96 L9.03 267.96 L9.03 265.7 L6.77 265.7 L6.77 267.96 ZM6.77 257.8 L9.03 257.8
							 L9.03 255.54 L6.77 255.54 L6.77 257.8 ZM6.77 264.57 L9.03 264.57 L9.03 262.31 L6.77 262.31 L6.77 264.57
							 ZM3.39 261.18 L5.64 261.18 L5.64 258.93 L3.39 258.93 L3.39 261.18 ZM3.39 264.57 L5.64 264.57 L5.64 262.31
							 L3.39 262.31 L3.39 264.57 ZM0 257.8 L2.26 257.8 L2.26 255.54 L0 255.54 L0 257.8 ZM0 261.18 L2.26 261.18
							 L2.26 258.93 L0 258.93 L0 261.18 ZM0 254.41 L2.26 254.41 L2.26 252.16 L0 252.16 L0 254.41 ZM0.23 251.03
							 L2.26 251.03 L2.26 248.77 L1.69 248.77 C1.13 249.45 0.68 250.24 0.23 251.03 ZM3.39 266.26 C4.06 266.83
							 4.85 267.28 5.64 267.73 L5.64 265.7 L3.39 265.7 L3.39 266.26 ZM3.39 251.03 L5.64 251.03 L5.64 248.77
							 L3.39 248.77 L3.39 251.03 ZM20.32 264.57 L20.88 264.57 C21.44 263.89 21.9 263.1 22.35 262.31 L20.32
							 262.31 L20.32 264.57 ZM16.93 261.18 L19.19 261.18 L19.19 258.93 L16.93 258.93 L16.93 261.18 ZM16.93
							 267.73 C17.72 267.28 18.51 266.83 19.19 266.26 L19.19 265.7 L16.93 265.7 L16.93 267.73 ZM16.93 264.57
							 L19.19 264.57 L19.19 262.31 L16.93 262.31 L16.93 264.57 ZM6.77 254.41 L9.03 254.41 L9.03 252.16 L6.77
							 252.16 L6.77 254.41 ZM22.01 234.1 C15.46 234.1 10.16 239.4 10.16 245.95 C10.16 249.45 10.16 257.8 10.16
							 257.8 C10.16 257.8 18.96 257.8 22.01 257.8 C28.56 257.8 33.86 252.49 33.86 245.95 C33.86 239.4 28.56
							 234.1 22.01 234.1 ZM18.06 251.03 L15.8 251.03 L15.8 244.25 L18.06 244.25 L18.06 251.03 ZM22.57 251.03
							 L20.32 251.03 L20.32 246.51 L22.57 246.51 L22.57 251.03 ZM27.09 251.03 L24.83 251.03 L24.83 242 L27.09
							 242 L27.09 251.03 ZM20.32 261.18 L22.57 261.18 L22.57 258.93 L20.32 258.93 L20.32 261.18 ZM6.77 247.64
							 L9.03 247.64 L9.03 245.38 L6.77 245.38 L6.77 247.64 ZM13.54 264.57 L15.8 264.57 L15.8 262.31 L13.54
							 262.31 L13.54 264.57 ZM10.16 264.57 L12.42 264.57 L12.42 262.31 L10.16 262.31 L10.16 264.57 ZM10.16
							 261.18 L12.42 261.18 L12.42 258.93 L10.16 258.93 L10.16 261.18 ZM13.54 267.96 L15.8 267.96 L15.8 265.7
							 L13.54 265.7 L13.54 267.96 Z" class="st21"/>
				<text x="-7.39" y="277.3" class="st22" v:langID="1031"><v:paragraph v:horizAlign="1"/><v:tabList/>Workspace</text>			</g>
			<g id="shape1014-86" v:mID="1014" v:groupContext="shape" transform="translate(22.3187,-22.5084)">
				<title>Sheet.1014</title>
				<desc>Data</desc>
				<v:textBlock v:margins="rect(4,4,4,4)" v:tabSpace="42.5197" v:verticalAlign="2"/>
				<v:textRect cx="48.189" cy="258.206" width="96.38" height="19.5007"/>
				<rect x="0" y="248.456" width="96.3779" height="19.5007" rx="5.66929" ry="5.66929" class="st23"/>
				<text x="38.39" y="260.96" class="st24" v:langID="1031"><v:paragraph v:horizAlign="1"/><v:tabList/>Data</text>			</g>
		</g>
		<g id="shape1134-89" v:mID="1134" v:groupContext="shape" v:layerMember="0" transform="translate(241.128,-158.073)">
			<title>Dynamic connector.1134</title>
			<path d="M0 260.87 L24.14 260.87" class="st25"/>
		</g>
		<g id="shape1135-95" v:mID="1135" v:groupContext="shape" v:layerMember="0" transform="translate(305.191,-165.159)">
			<title>Dynamic connector.1135</title>
			<desc>Store data</desc>
			<v:textBlock v:margins="rect(4,4,4,4)" v:tabSpace="42.5197"/>
			<v:textRect cx="39.8477" cy="258.035" width="43.52" height="17.6036"/>
			<path d="M0 267.96 L48.93 267.96 L48.93 290.92 L86.86 290.92" class="st27"/>
			<rect v:rectContext="textBkgnd" x="22.9983" y="253.236" width="33.6989" height="9.59985" class="st4"/>
			<text x="23" y="260.44" class="st29" v:langID="1031"><v:paragraph v:horizAlign="1"/><v:tabList/>Store data</text>		</g>
		<g id="shape1137-103" v:mID="1137" v:groupContext="shape" transform="translate(187.27,-129.726)">
			<title>Sheet.1137</title>
			<desc>Event Grid / Logic App with Event Grid trigger</desc>
			<v:textBlock v:margins="rect(4,4,4,4)" v:tabSpace="42.5197" v:verticalAlign="0"/>
			<v:textRect cx="67.4646" cy="225.631" width="134.93" height="84.6509"/>
			<rect x="0" y="183.306" width="134.929" height="84.6509" rx="5.66929" ry="5.66929" class="st19"/>
			<text x="10.06" y="196.31" class="st20" v:langID="1031"><v:paragraph v:horizAlign="1"/><v:tabList/>Event Grid / Logic App with <tspan
						x="30.52" dy="1.2em" class="st30">Event Grid trigger</tspan></text>		</g>
		<g id="group1146-107" transform="translate(240.105,-43.6958)" v:mID="1146" v:groupContext="group">
			<title>Sheet.1146</title>
			<g id="group1147-108" v:mID="1147" v:groupContext="group">
				<title>Page-1</title>
				<g id="group1148-109" v:mID="1148" v:groupContext="group">
					<title>Sheet.1148</title>
					<g id="shape1149-110" v:mID="1149" v:groupContext="shape">
						<title>Sheet.1149</title>
						<path d="M23.68 246.13 L23.74 247.59 C24.19 247.59 24.46 247.71 24.69 247.93 C24.86 248.16 24.97 248.55 24.97
									 249.06 L24.97 254.63 C24.97 255.92 25.42 256.71 26.21 257.04 C25.36 257.38 24.97 258.17 24.97
									 259.47 L24.97 265.09 C24.97 266.04 24.52 266.49 23.68 266.49 L23.68 267.96 C24.86 267.96 25.71
									 267.73 26.21 267.28 C26.72 266.83 26.94 266.04 26.94 264.98 L26.94 259.29 C26.94 258.28 27.34
									 257.78 28.12 257.78 L28.12 256.32 C27.34 256.32 26.94 255.81 26.94 254.85 L26.94 249 C26.94
									 247.93 26.72 247.2 26.21 246.75 C25.71 246.36 24.86 246.13 23.68 246.13 ZM17.1 263.85 C17.1
									 264.47 17.61 264.98 18.22 264.98 L20.81 264.98 C21.43 264.98 21.94 264.47 21.94 263.85 L21.94
									 261.27 C21.94 260.64 21.43 260.14 20.81 260.14 L20.2 260.14 L20.2 259.18 C20.2 258.06 19.3 257.04
									 18 256.65 L15.64 256.14 C15.13 255.99 14.76 255.72 14.58 255.41 C14.61 255.26 14.62 255.12 14.62
									 254.97 L14.62 254.85 L14.62 253.22 L15.36 253.22 C15.97 253.22 16.48 252.72 16.48 252.09 L16.48
									 249.12 C16.48 248.49 15.97 247.99 15.36 247.99 L12.37 247.99 C11.76 247.99 11.25 248.49 11.25
									 249.12 L11.25 252.09 C11.25 252.72 11.76 253.22 12.37 253.22 L13.05 253.22 L13.05 254.85 L13.05
									 254.97 C13.05 255.12 13.06 255.26 13.09 255.41 C12.91 255.72 12.55 255.99 12.04 256.14 L10.12
									 256.54 C8.83 256.93 7.93 257.94 7.93 259.07 L7.93 260.03 L7.31 260.03 C6.7 260.03 6.19 260.53
									 6.19 261.15 L6.19 263.74 C6.19 264.36 6.7 264.87 7.31 264.87 L9.9 264.87 C10.52 264.87 11.02
									 264.36 11.02 263.74 L11.02 261.15 C11.02 260.53 10.52 260.03 9.9 260.03 L9.34 260.03 L9.34 259.07
									 C9.34 258.57 9.79 258.12 10.52 257.89 L12.43 257.44 C12.98 257.29 13.46 257.03 13.83 256.68
									 C14.2 257.04 14.68 257.32 15.24 257.49 L17.61 258 C18.34 258.23 18.79 258.68 18.79 259.18 L18.79
									 260.14 L18.22 260.14 C17.61 260.14 17.1 260.64 17.1 261.27 L17.1 263.85 ZM14.91 249.57 L14.91
									 251.64 L12.82 251.64 L12.82 249.57 L14.91 249.57 ZM4.44 267.96 L4.39 266.49 C3.94 266.49 3.65
									 266.38 3.43 266.16 C3.26 265.93 3.15 265.54 3.15 265.03 L3.15 259.47 C3.15 258.17 2.7 257.38
									 1.91 257.04 C2.75 256.71 3.15 255.92 3.15 254.63 L3.15 249 C3.15 248.04 3.6 247.59 4.44 247.59
									 L4.44 246.13 C3.26 246.13 2.41 246.3 1.91 246.75 C1.41 247.2 1.18 247.99 1.18 249.06 L1.18 254.79
									 C1.18 255.81 0.79 256.32 0 256.32 L0 257.78 C0.79 257.78 1.18 258.28 1.18 259.24 L1.18 265.09
									 C1.18 266.16 1.41 266.89 1.91 267.34 C2.41 267.73 3.26 267.96 4.44 267.96 Z" class="st18"/>
					</g>
				</g>
			</g>
		</g>
		<g id="shape1151-112" v:mID="1151" v:groupContext="shape" transform="translate(186.703,-19.5637)">
			<title>Sheet.1151</title>
			<desc>Logic App with Schedule trigger</desc>
			<v:textBlock v:margins="rect(4,4,4,4)" v:tabSpace="42.5197" v:verticalAlign="0"/>
			<v:textRect cx="67.4646" cy="225.631" width="134.93" height="84.6509"/>
			<rect x="0" y="183.306" width="134.929" height="84.6509" rx="5.66929" ry="5.66929" class="st19"/>
			<text x="15.97" y="196.31" class="st20" v:langID="1031"><v:paragraph v:horizAlign="1"/><v:tabList/>Logic App with Schedule <tspan
						x="53.53" dy="1.2em" class="st30">trigger</tspan></text>		</g>
		<g id="shape1153-116" v:mID="1153" v:groupContext="shape" transform="translate(37.3303,-82.9547)">
			<title>Sheet.1153</title>
			<desc>VMs</desc>
			<v:textBlock v:margins="rect(4,4,4,4)" v:tabSpace="42.5197" v:verticalAlign="0"/>
			<v:textRect cx="67.4646" cy="182.917" width="134.93" height="170.079"/>
			<rect x="0" y="97.8779" width="134.929" height="170.079" rx="5.66929" ry="5.66929" class="st19"/>
			<text x="58.34" y="110.88" class="st20" v:langID="1031"><v:paragraph v:horizAlign="1"/><v:tabList/>VMs</text>		</g>
		<g id="shape1154-119" v:mID="1154" v:groupContext="shape" v:layerMember="0" transform="translate(238.183,-54.6083)">
			<title>Dynamic connector.1154</title>
			<desc>2. Validate status</desc>
			<v:textBlock v:margins="rect(4,4,4,4)" v:tabSpace="42.5197"/>
			<v:textRect cx="-95.7003" cy="275.327" width="65.9" height="17.6036"/>
			<path d="M0 267.96 L-137.65 267.96 L-137.65 246.65" class="st31"/>
			<rect v:rectContext="textBkgnd" x="-123.741" y="270.527" width="56.0814" height="9.59985" class="st4"/>
			<text x="-123.74" y="277.73" class="st33" v:langID="1031"><v:paragraph v:horizAlign="1"/><v:tabList/>2. Validate status</text>		</g>
		<g id="shape1155-127" v:mID="1155" v:groupContext="shape" v:layerMember="0" transform="translate(270.041,-47.8051)">
			<title>Dynamic connector.1155</title>
			<desc>3. Store data</desc>
			<v:textBlock v:margins="rect(4,4,4,4)" v:tabSpace="42.5197"/>
			<v:textRect cx="75.9685" cy="278.161" width="51.4" height="17.6036"/>
			<path d="M0 267.96 L83.34 267.96 L83.34 180.23 L122.01 180.23" class="st27"/>
			<rect v:rectContext="textBkgnd" x="55.1777" y="273.362" width="41.5819" height="9.59985" class="st4"/>
			<text x="55.18" y="280.56" class="st29" v:langID="1031"><v:paragraph v:horizAlign="1"/><v:tabList/>3. Store data</text>		</g>
		<g id="shape1156-134" v:mID="1156" v:groupContext="shape" v:layerMember="0" transform="translate(270.041,-61.4114)">
			<title>Dynamic connector.1156</title>
			<desc>1. Get status</desc>
			<v:textBlock v:margins="rect(4,4,4,4)" v:tabSpace="42.5197"/>
			<v:textRect cx="28.3465" cy="260.587" width="50.87" height="17.6036"/>
			<path d="M0 267.96 L67.46 267.96 L67.46 190.85 L122.01 190.85" class="st31"/>
			<rect v:rectContext="textBkgnd" x="7.82136" y="255.787" width="41.0504" height="9.59985" class="st4"/>
			<text x="7.82" y="262.99" class="st33" v:langID="1031"><v:paragraph v:horizAlign="1"/><v:tabList/>1. Get status</text>		</g>
	</g>
</svg>
