<?xml version="1.0" encoding="UTF-8" standalone="no"?>
<!DOCTYPE svg PUBLIC "-//W3C//DTD SVG 1.1//EN" "http://www.w3.org/Graphics/SVG/1.1/DTD/svg11.dtd">
<!-- Generated by Microsoft Visio, SVG Export Serverless API to track authentication requests.svg Page-1 -->
<svg xmlns="http://www.w3.org/2000/svg" xmlns:xlink="http://www.w3.org/1999/xlink" xmlns:ev="http://www.w3.org/2001/xml-events"
		xmlns:v="http://schemas.microsoft.com/visio/2003/SVGExtensions/" width="10.5267in" height="1.9106in"
		viewBox="0 0 757.925 137.563" xml:space="preserve" color-interpolation-filters="sRGB" class="st25">
	<v:documentProperties v:langID="1033" v:metric="true" v:viewMarkup="false"/>

	<style type="text/css">
	<![CDATA[
		.st1 {fill:#ffffff;stroke:#d8d8d8;stroke-width:0.75}
		.st2 {fill:none;stroke:#4672c4;stroke-width:0.75}
		.st3 {fill:#1f477d;font-family:Segoe UI Light;font-size:0.833336em}
		.st4 {fill:#0078d7;stroke:none;stroke-width:0.25}
		.st5 {marker-end:url(#mrkr4-13);stroke:#4672c4;stroke-linecap:round;stroke-linejoin:round;stroke-width:1}
		.st6 {fill:#4672c4;fill-opacity:1;stroke:#4672c4;stroke-opacity:1;stroke-width:0.28409090909091}
		.st7 {fill:#ffffff;stroke:none;stroke-linecap:butt;stroke-width:7.2}
		.st8 {fill:#3c63ac;font-family:Calibri;font-size:0.666664em}
		.st9 {fill:#0078d7;stroke:none;stroke-width:0.75}
		.st10 {marker-end:url(#mrkr4-29);stroke:#bdd0e9;stroke-linecap:round;stroke-linejoin:round;stroke-width:1}
		.st11 {fill:#bdd0e9;fill-opacity:1;stroke:#bdd0e9;stroke-opacity:1;stroke-width:0.28409090909091}
		.st12 {fill:#a6b6cd;font-family:Calibri;font-size:0.666664em}
		.st13 {fill:#59b4d9;stroke:none;stroke-width:0.75}
		.st14 {fill:#68217a;stroke:none;stroke-width:0.75}
		.st15 {font-size:1em}
		.st16 {fill:#0078d7;stroke:none;stroke-width:4.02632}
		.st17 {marker-end:url(#mrkr4-54);stroke:#70ad47;stroke-linecap:round;stroke-linejoin:round;stroke-width:1}
		.st18 {fill:#70ad47;fill-opacity:1;stroke:#70ad47;stroke-opacity:1;stroke-width:0.28409090909091}
		.st19 {fill:#61973d;font-family:Calibri;font-size:0.666664em}
		.st20 {fill:#000000;stroke:none;stroke-linecap:butt;stroke-width:1.05281}
		.st21 {fill:none;stroke:#4672c4;stroke-dasharray:5.25,3.75;stroke-width:0.75}
		.st22 {marker-end:url(#mrkr4-79);stroke:#759fcc;stroke-dasharray:3,3;stroke-linecap:round;stroke-linejoin:round;stroke-width:1}
		.st23 {fill:#759fcc;fill-opacity:1;stroke:#759fcc;stroke-opacity:1;stroke-width:0.28409090909091}
		.st24 {fill:#668bb3;font-family:Calibri;font-size:0.666664em}
		.st25 {fill:none;fill-rule:evenodd;font-size:12px;overflow:visible;stroke-linecap:square;stroke-miterlimit:3}
	]]>
	</style>

	<defs id="Markers">
		<g id="lend4">
			<path d="M 2 1 L 0 0 L 2 -1 L 2 1 " style="stroke:none"/>
		</g>
		<marker id="mrkr4-13" class="st6" v:arrowType="4" v:arrowSize="2" v:setback="7.04" refX="-7.04" orient="auto"
				markerUnits="strokeWidth" overflow="visible">
			<use xlink:href="#lend4" transform="scale(-3.52,-3.52) "/>
		</marker>
		<marker id="mrkr4-29" class="st11" v:arrowType="4" v:arrowSize="2" v:setback="7.04" refX="-7.04" orient="auto"
				markerUnits="strokeWidth" overflow="visible">
			<use xlink:href="#lend4" transform="scale(-3.52,-3.52) "/>
		</marker>
		<marker id="mrkr4-54" class="st18" v:arrowType="4" v:arrowSize="2" v:setback="7.04" refX="-7.04" orient="auto"
				markerUnits="strokeWidth" overflow="visible">
			<use xlink:href="#lend4" transform="scale(-3.52,-3.52) "/>
		</marker>
		<marker id="mrkr4-79" class="st23" v:arrowType="4" v:arrowSize="2" v:setback="7.04" refX="-7.04" orient="auto"
				markerUnits="strokeWidth" overflow="visible">
			<use xlink:href="#lend4" transform="scale(-3.52,-3.52) "/>
		</marker>
	</defs>
	<g v:mID="0" v:index="1" v:groupContext="foregroundPage">
		<title>Page-1</title>
		<v:pageProperties v:drawingScale="0.0393701" v:pageScale="0.0393701" v:drawingUnits="24" v:shadowOffsetX="9"
				v:shadowOffsetY="-9"/>
		<v:layer v:name="Connector" v:index="0"/>
		<g id="shape1157-1" v:mID="1157" v:groupContext="shape" transform="translate(0.75,-0.75)">
			<title>Sheet.1157</title>
			<rect x="0" y="1.5" width="756.425" height="136.063" rx="5.66929" ry="5.66929" class="st1"/>
		</g>
		<g id="shape171-3" v:mID="171" v:groupContext="shape" transform="translate(438.278,-29.0965)">
			<title>Sheet.171</title>
			<desc>Log Analytics</desc>
			<v:textBlock v:margins="rect(4,4,4,4)" v:tabSpace="42.5197" v:verticalAlign="0"/>
			<v:textRect cx="70.5076" cy="95.2375" width="141.02" height="84.6509"/>
			<rect x="0" y="52.9121" width="141.015" height="84.6509" rx="5.66929" ry="5.66929" class="st2"/>
			<text x="42.99" y="65.91" class="st3" v:langID="1031"><v:paragraph v:horizAlign="1"/><v:tabList/>Log Analytics</text>		</g>
		<g id="shape172-6" v:mID="172" v:groupContext="shape" transform="translate(494.97,-47.48)">
			<title>Operational Insights.172</title>
			<path d="M3.39 124.02 L5.64 124.02 L5.64 121.76 L3.39 121.76 L3.39 124.02 ZM3.39 117.25 L5.64 117.25 L5.64 115.22 C4.85
						 115.67 4.06 116.12 3.39 116.68 L3.39 117.25 ZM6.77 130.79 L9.03 130.79 L9.03 128.53 L6.77 128.53 L6.77 130.79
						 ZM6.77 137.56 L9.03 137.56 L9.03 135.31 L6.77 135.31 L6.77 137.56 ZM6.77 127.41 L9.03 127.41 L9.03 125.15
						 L6.77 125.15 L6.77 127.41 ZM6.77 134.18 L9.03 134.18 L9.03 131.92 L6.77 131.92 L6.77 134.18 ZM3.39 130.79
						 L5.64 130.79 L5.64 128.53 L3.39 128.53 L3.39 130.79 ZM3.39 134.18 L5.64 134.18 L5.64 131.92 L3.39 131.92
						 L3.39 134.18 ZM0 127.41 L2.26 127.41 L2.26 125.15 L0 125.15 L0 127.41 ZM0 130.79 L2.26 130.79 L2.26 128.53
						 L0 128.53 L0 130.79 ZM0 124.02 L2.26 124.02 L2.26 121.76 L0 121.76 L0 124.02 ZM0.23 120.63 L2.26 120.63
						 L2.26 118.38 L1.69 118.38 C1.13 119.05 0.68 119.84 0.23 120.63 ZM3.39 135.87 C4.06 136.43 4.85 136.89 5.64
						 137.34 L5.64 135.31 L3.39 135.31 L3.39 135.87 ZM3.39 120.63 L5.64 120.63 L5.64 118.38 L3.39 118.38 L3.39
						 120.63 ZM20.32 134.18 L20.88 134.18 C21.44 133.5 21.9 132.71 22.35 131.92 L20.32 131.92 L20.32 134.18 ZM16.93
						 130.79 L19.19 130.79 L19.19 128.53 L16.93 128.53 L16.93 130.79 ZM16.93 137.34 C17.72 136.89 18.51 136.43
						 19.19 135.87 L19.19 135.31 L16.93 135.31 L16.93 137.34 ZM16.93 134.18 L19.19 134.18 L19.19 131.92 L16.93
						 131.92 L16.93 134.18 ZM6.77 124.02 L9.03 124.02 L9.03 121.76 L6.77 121.76 L6.77 124.02 ZM22.01 103.7 C15.46
						 103.7 10.16 109.01 10.16 115.55 C10.16 119.05 10.16 127.41 10.16 127.41 C10.16 127.41 18.96 127.41 22.01
						 127.41 C28.56 127.41 33.86 122.1 33.86 115.55 C33.86 109.01 28.56 103.7 22.01 103.7 ZM18.06 120.63 L15.8
						 120.63 L15.8 113.86 L18.06 113.86 L18.06 120.63 ZM22.57 120.63 L20.32 120.63 L20.32 116.12 L22.57 116.12
						 L22.57 120.63 ZM27.09 120.63 L24.83 120.63 L24.83 111.6 L27.09 111.6 L27.09 120.63 ZM20.32 130.79 L22.57
						 130.79 L22.57 128.53 L20.32 128.53 L20.32 130.79 ZM6.77 117.25 L9.03 117.25 L9.03 114.99 L6.77 114.99 L6.77
						 117.25 ZM13.54 134.18 L15.8 134.18 L15.8 131.92 L13.54 131.92 L13.54 134.18 ZM10.16 134.18 L12.42 134.18
						 L12.42 131.92 L10.16 131.92 L10.16 134.18 ZM10.16 130.79 L12.42 130.79 L12.42 128.53 L10.16 128.53 L10.16
						 130.79 ZM13.54 137.56 L15.8 137.56 L15.8 135.31 L13.54 135.31 L13.54 137.56 Z" class="st4"/>
		</g>
		<g id="shape1134-8" v:mID="1134" v:groupContext="shape" v:layerMember="0" transform="translate(217.175,-57.2335)">
			<title>Dynamic connector.1134</title>
			<desc>2. Route data</desc>
			<v:textBlock v:margins="rect(4,4,4,4)" v:tabSpace="42.5197"/>
			<v:textRect cx="93.5529" cy="141.806" width="53.48" height="17.6036"/>
			<path d="M0 130.49 L113.04 130.46" class="st5"/>
			<rect v:rectContext="textBkgnd" x="71.7211" y="137.007" width="43.6638" height="9.59985" class="st7"/>
			<text x="71.72" y="144.21" class="st8" v:langID="1031"><v:paragraph v:horizAlign="1"/><v:tabList/>2. Route data</text>		</g>
		<g id="group1146-16" transform="translate(339.176,-53.4228)" v:mID="1146" v:groupContext="group">
			<title>Sheet.1146</title>
			<g id="group1147-17" v:mID="1147" v:groupContext="group">
				<title>Page-1</title>
				<g id="group1148-18" v:mID="1148" v:groupContext="group">
					<title>Sheet.1148</title>
					<g id="shape1149-19" v:mID="1149" v:groupContext="shape">
						<title>Sheet.1149</title>
						<path d="M23.68 115.74 L23.74 117.2 C24.19 117.2 24.46 117.31 24.69 117.54 C24.86 117.76 24.97 118.16 24.97
									 118.66 L24.97 124.24 C24.97 125.53 25.42 126.31 26.21 126.65 C25.36 126.99 24.97 127.78 24.97
									 129.07 L24.97 134.7 C24.97 135.65 24.52 136.1 23.68 136.1 L23.68 137.56 C24.86 137.56 25.71
									 137.34 26.21 136.89 C26.72 136.44 26.94 135.65 26.94 134.59 L26.94 128.9 C26.94 127.89 27.34
									 127.39 28.12 127.39 L28.12 125.92 C27.34 125.92 26.94 125.41 26.94 124.46 L26.94 118.61 C26.94
									 117.54 26.72 116.81 26.21 116.36 C25.71 115.96 24.86 115.74 23.68 115.74 ZM17.1 133.46 C17.1
									 134.08 17.61 134.59 18.22 134.59 L20.81 134.59 C21.43 134.59 21.94 134.08 21.94 133.46 L21.94
									 130.87 C21.94 130.25 21.43 129.75 20.81 129.75 L20.2 129.75 L20.2 128.79 C20.2 127.66 19.3 126.65
									 18 126.26 L15.64 125.75 C15.13 125.59 14.76 125.33 14.58 125.02 C14.61 124.87 14.62 124.72 14.62
									 124.57 L14.62 124.46 L14.62 122.83 L15.36 122.83 C15.97 122.83 16.48 122.32 16.48 121.7 L16.48
									 118.72 C16.48 118.1 15.97 117.6 15.36 117.6 L12.37 117.6 C11.76 117.6 11.25 118.1 11.25 118.72
									 L11.25 121.7 C11.25 122.32 11.76 122.83 12.37 122.83 L13.05 122.83 L13.05 124.46 L13.05 124.57
									 C13.05 124.72 13.06 124.87 13.09 125.02 C12.91 125.33 12.55 125.59 12.04 125.75 L10.12 126.15
									 C8.83 126.54 7.93 127.55 7.93 128.68 L7.93 129.64 L7.31 129.64 C6.7 129.64 6.19 130.14 6.19
									 130.76 L6.19 133.35 C6.19 133.96 6.7 134.47 7.31 134.47 L9.9 134.47 C10.52 134.47 11.02 133.96
									 11.02 133.35 L11.02 130.76 C11.02 130.14 10.52 129.64 9.9 129.64 L9.34 129.64 L9.34 128.68 C9.34
									 128.17 9.79 127.72 10.52 127.5 L12.43 127.05 C12.98 126.9 13.46 126.64 13.83 126.29 C14.2 126.64
									 14.68 126.93 15.24 127.1 L17.61 127.61 C18.34 127.84 18.79 128.29 18.79 128.79 L18.79 129.75
									 L18.22 129.75 C17.61 129.75 17.1 130.25 17.1 130.87 L17.1 133.46 ZM14.91 119.17 L14.91 121.25
									 L12.82 121.25 L12.82 119.17 L14.91 119.17 ZM4.44 137.56 L4.39 136.1 C3.94 136.1 3.65 135.99
									 3.43 135.76 C3.26 135.54 3.15 135.15 3.15 134.64 L3.15 129.07 C3.15 127.78 2.7 126.99 1.91 126.65
									 C2.75 126.31 3.15 125.53 3.15 124.24 L3.15 118.61 C3.15 117.65 3.6 117.2 4.44 117.2 L4.44 115.74
									 C3.26 115.74 2.41 115.91 1.91 116.36 C1.41 116.81 1.18 117.6 1.18 118.66 L1.18 124.4 C1.18 125.41
									 0.79 125.92 0 125.92 L0 127.39 C0.79 127.39 1.18 127.89 1.18 128.85 L1.18 134.7 C1.18 135.76
									 1.41 136.5 1.91 136.95 C2.41 137.34 3.26 137.56 4.44 137.56 Z" class="st9"/>
					</g>
				</g>
			</g>
		</g>
		<g id="shape1151-21" v:mID="1151" v:groupContext="shape" transform="translate(282.089,-29.0965)">
			<title>Sheet.1151</title>
			<desc>Logic App w/ Request trigger</desc>
			<v:textBlock v:margins="rect(4,4,4,4)" v:tabSpace="42.5197" v:verticalAlign="0"/>
			<v:textRect cx="67.4646" cy="95.2375" width="134.93" height="84.6509"/>
			<rect x="0" y="52.9121" width="134.929" height="84.6509" rx="5.66929" ry="5.66929" class="st2"/>
			<text x="6.22" y="65.91" class="st3" v:langID="1031"><v:paragraph v:horizAlign="1"/><v:tabList/>Logic App w/ Request trigger</text>		</g>
		<g id="shape1155-24" v:mID="1155" v:groupContext="shape" v:layerMember="0" transform="translate(370.135,-57.2559)">
			<title>Dynamic connector.1155</title>
			<desc>3. Store data</desc>
			<v:textBlock v:margins="rect(4,4,4,4)" v:tabSpace="42.5197"/>
			<v:textRect cx="96.4932" cy="141.542" width="51.4" height="17.6036"/>
			<path d="M0 130.48 L117.09 130.47" class="st10"/>
			<rect v:rectContext="textBkgnd" x="75.7023" y="136.742" width="41.5819" height="9.59985" class="st7"/>
			<text x="75.7" y="143.94" class="st12" v:langID="1031"><v:paragraph v:horizAlign="1"/><v:tabList/>3. Store data</text>		</g>
		<g id="group1158-32" transform="translate(178.907,-48.7442)" v:mID="1158" v:groupContext="group">
			<title>Sheet.1158</title>
			<g id="shape1159-33" v:mID="1159" v:groupContext="shape">
				<title>Sheet.1159</title>
				<path d="M15.37 127.66 L8.7 127.66 C5.4 127.66 2.7 124.96 2.7 121.59 C2.7 118.21 5.25 115.51 8.7 115.51 C9.3 115.51
							 9.97 115.66 10.73 115.74 L12 116.11 L12.38 114.84 C13.57 110.94 17.33 108.54 21.6 108.54 C26.78 108.54
							 30.75 112.51 30.75 117.69 C30.75 118.51 30.6 119.34 30.38 120.16 L29.85 122.04 L31.88 121.81 C32.03
							 121.81 32.1 121.81 32.25 121.81 C33.75 121.81 34.95 123.09 34.95 124.51 C34.95 125.94 33.9 126.99 32.63
							 127.21 C32.63 127.21 26.18 127.21 25.95 127.21 C25.73 125.34 24.75 123.69 23.48 122.41 C21.83 120.76
							 19.58 119.79 17.25 119.79 C15.6 119.79 13.95 120.24 12.67 121.06 L14.1 123.31 C15.15 122.71 16.2 122.49
							 17.4 122.49 C19.05 122.49 20.7 123.09 21.75 124.36 C22.95 125.56 23.62 127.06 23.62 128.71 C23.62 130.36
							 23.02 132.01 21.75 133.06 C20.55 134.34 19.05 134.94 17.4 134.94 C16.2 134.94 15.07 134.56 14.1 133.89
							 L12.67 136.14 C14.1 136.96 15.75 137.56 17.25 137.56 C19.58 137.56 21.83 136.74 23.48 135.01 C24.9 133.59
							 25.72 131.71 25.95 129.76 C26.33 129.76 32.78 129.76 32.78 129.76 L32.93 129.76 C35.63 129.54 37.65
							 127.21 37.65 124.36 C37.65 122.11 35.55 120.01 33.08 119.56 C33.23 119.11 33.23 118.89 33.23 118.14
							 C33.23 111.54 28.58 106.29 21.15 106.29 C16.43 106.29 12.23 108.99 10.5 113.34 C9.9 113.34 9.45 113.11
							 8.78 113.11 C3.9 113.04 0 116.79 0 121.59 C0 126.31 3.9 130.06 8.55 130.06 L15.9 130.06 L15.37 127.66
							 Z" class="st13"/>
			</g>
			<g id="shape1160-35" v:mID="1160" v:groupContext="shape" transform="translate(12.9,-4.725)">
				<title>Sheet.1160</title>
				<ellipse cx="4.2" cy="133.363" rx="4.2" ry="4.2" class="st14"/>
			</g>
		</g>
		<g id="shape1161-37" v:mID="1161" v:groupContext="shape" transform="translate(129.868,-29.0965)">
			<title>Sheet.1161</title>
			<desc>API Management w/ authentication</desc>
			<v:textBlock v:margins="rect(4,4,4,4)" v:tabSpace="42.5197" v:verticalAlign="0"/>
			<v:textRect cx="67.4646" cy="95.2375" width="134.93" height="84.6509"/>
			<rect x="0" y="52.9121" width="134.929" height="84.6509" rx="5.66929" ry="5.66929" class="st2"/>
			<text x="24.61" y="65.91" class="st3" v:langID="1031"><v:paragraph v:horizAlign="1"/><v:tabList/>API Management w/ <tspan
						x="37.77" dy="1.2em" class="st15">authentication</tspan></text>		</g>
		<g id="group1162-41" transform="translate(17.9504,-48.3718)" v:mID="1162" v:groupContext="group">
			<title>Sheet.1162</title>
			<g id="group1163-42" v:mID="1163" v:groupContext="group">
				<title>Sheet.1163</title>
			</g>
			<g id="group1164-43" v:mID="1164" v:groupContext="group">
				<title>paths</title>
				<g id="group1165-44" v:mID="1165" v:groupContext="group">
					<title>Sheet.1165</title>
					<g id="shape1166-45" v:mID="1166" v:groupContext="shape" transform="translate(0,-6.21495)">
						<title>Sheet.1166</title>
						<path d="M30.17 131.62 L30.17 121.8 C30.17 115.86 24.95 110.81 18.83 110.81 C12.7 110.81 7.48 115.86 7.48
									 121.8 L7.48 131.62 C1.53 133.96 0 137.47 0 137.47 L0.09 137.56 L37.56 137.56 L37.65 137.47 C37.65
									 137.56 36.12 134.05 30.17 131.62 ZM8.83 131.17 L8.83 121.8 C8.83 116.58 13.42 112.16 18.83 112.16
									 C24.23 112.16 28.82 116.58 28.82 121.8 L28.82 131.17 L28.73 131.17 C28.55 131.08 28.37 131.08
									 28.19 130.99 L21.53 130.99 C23.06 130.36 25.31 129.01 25.94 126.39 C25.94 126.21 25.94 126.03
									 25.76 125.94 C25.58 125.85 25.4 125.85 25.31 126.03 C25.31 126.03 22.79 128.47 20.72 128.47
									 C20.72 128.47 20.72 128.47 20.63 128.47 C21.44 127.02 22.43 125.67 23.42 123.6 C25.49 119.55
									 22.61 115.41 18.64 115.32 C14.68 115.23 11.62 119.28 13.51 123.42 C14.5 125.49 15.4 127.02 16.12
									 128.47 C14.05 128.38 11.62 126.03 11.62 126.03 C11.53 125.85 11.26 125.85 11.17 125.94 C10.99
									 126.03 10.9 126.21 10.99 126.39 C11.71 129.01 13.87 130.36 15.4 130.99 L9.37 130.99 C9.19 131.08
									 9.01 131.08 8.83 131.17 ZM22.79 122.79 C22.79 123.15 20.63 125.76 18.73 125.76 C16.75 125.67
									 15.04 123.15 15.04 122.79 C14.95 122.52 22.79 122.52 22.79 122.79 ZM19.37 120.9 C19.37 120.18
									 20.27 119.1 20.63 119.1 C21.08 119.1 21.71 120.27 21.71 121.08 C21.71 121.8 21.08 121.98 20.63
									 121.98 C20.27 121.89 19.37 121.71 19.37 120.9 ZM17.02 121.89 C16.57 121.89 16.03 121.71 15.94
									 120.99 C15.94 120.27 16.57 119.01 17.02 119.01 C17.47 119.01 18.28 120.09 18.28 120.81 C18.28
									 121.71 17.47 121.89 17.02 121.89 Z" class="st16"/>
					</g>
					<g id="shape1167-47" v:mID="1167" v:groupContext="shape" transform="translate(1.98158,-2.84217E-14)">
						<title>Sheet.1167</title>
						<path d="M16.84 137.56 C27.2 137.56 33.06 133.78 33.69 132.43 L0 132.43 C0.63 133.78 6.4 137.56 16.84 137.56
									 Z" class="st16"/>
					</g>
				</g>
			</g>
		</g>
		<g id="shape1168-49" v:mID="1168" v:groupContext="shape" v:layerMember="0" transform="translate(57.6354,-57.0892)">
			<title>Dynamic connector.1168</title>
			<desc>1. Request w/ JSON payload</desc>
			<v:textBlock v:margins="rect(4,4,4,4)" v:tabSpace="42.5197"/>
			<v:textRect cx="33.6174" cy="146.093" width="54.84" height="27.2035"/>
			<path d="M0 130.61 L112.53 130.36" class="st17"/>
			<rect v:rectContext="textBkgnd" x="11.1078" y="136.493" width="45.0192" height="19.1997" class="st7"/>
			<text x="11.11" y="143.69" class="st19" v:langID="1031"><v:paragraph v:horizAlign="1"/><v:tabList/>1. Request w/<v:lf/><tspan
						x="11.5" dy="1.2em" class="st15">JSON payload</tspan></text>		</g>
		<g id="group1169-58" transform="translate(653.979,-49.8637)" v:mID="1169" v:groupContext="group">
			<title>Sheet.1169</title>
			<g id="group1170-59" v:mID="1170" v:groupContext="group">
				<title>Page-1</title>
				<g id="group1171-60" v:mID="1171" v:groupContext="group">
					<title>Sheet.1171</title>
					<g id="shape1172-61" v:mID="1172" v:groupContext="shape" transform="translate(5.23139,-3.99386)">
						<title>Sheet.1172</title>
						<path d="M3.6 135.76 C3.6 136.78 2.81 137.56 1.8 137.56 C0.79 137.56 0 136.78 0 135.76 L0 127.95 C0 126.93
									 0.79 126.15 1.8 126.15 C2.81 126.15 3.6 126.93 3.6 127.95 L3.6 135.76 Z" class="st20"/>
					</g>
					<g id="shape1173-63" v:mID="1173" v:groupContext="shape" transform="translate(10.519,-1.8563)">
						<title>Sheet.1173</title>
						<path d="M3.6 135.76 C3.6 136.78 2.81 137.56 1.8 137.56 C0.79 137.56 0 136.78 0 135.76 L0 123.78 C0 122.77
									 0.79 121.98 1.8 121.98 C2.81 121.98 3.6 122.77 3.6 123.78 L3.6 135.76 Z" class="st20"/>
					</g>
					<g id="shape1174-65" v:mID="1174" v:groupContext="shape" transform="translate(-2.82274E-14,-5.73766)">
						<title>Sheet.1174</title>
						<path d="M3.6 135.76 C3.6 136.78 2.81 137.56 1.8 137.56 C0.79 137.56 0 136.78 0 135.76 L0 131.55 C0 130.53
									 0.79 129.75 1.8 129.75 C2.81 129.75 3.6 130.53 3.6 131.55 L3.6 135.76 Z" class="st20"/>
					</g>
					<g id="shape1175-67" v:mID="1175" v:groupContext="shape" transform="translate(15.8067,-1.7053E-13)">
						<title>Sheet.1175</title>
						<path d="M3.6 135.76 C3.6 136.78 2.81 137.56 1.8 137.56 C0.79 137.56 0 136.78 0 135.76 L0 119.9 C0 118.89
									 0.79 118.1 1.8 118.1 C2.81 118.1 3.6 118.89 3.6 119.9 L3.6 135.76 Z" class="st20"/>
					</g>
					<g id="shape1176-69" v:mID="1176" v:groupContext="shape" transform="translate(0.843773,-2.58757)">
						<title>Sheet.1176</title>
						<path d="M24.3 137.56 C24.02 137.56 23.68 137.51 23.4 137.4 L21.15 136.67 C20.76 136.55 20.59 136.16 20.7
									 135.76 C20.81 135.37 21.21 135.2 21.6 135.31 L23.85 136.05 C24.3 136.22 24.81 136.1 25.2 135.82
									 C25.59 135.54 25.82 135.09 25.82 134.58 L25.82 120.02 C25.82 119.34 25.37 118.72 24.75 118.55
									 L3.43 112.08 C2.98 111.91 2.47 112.03 2.08 112.31 C1.69 112.59 1.46 113.04 1.46 113.55 L1.46
									 123.56 C1.46 123.95 1.13 124.29 0.73 124.29 C0.34 124.29 0 123.95 0 123.56 L0 113.55 C0 112.59
									 0.45 111.75 1.18 111.13 C1.97 110.56 2.92 110.39 3.83 110.68 L25.14 117.15 C26.38 117.54 27.28
									 118.66 27.28 120.02 L27.28 134.58 C27.28 135.54 26.83 136.44 26.05 137 C25.48 137.4 24.92 137.56
									 24.3 137.56 Z" class="st20"/>
					</g>
				</g>
			</g>
		</g>
		<g id="shape1177-71" v:mID="1177" v:groupContext="shape" transform="translate(600.986,-29.0965)">
			<title>Sheet.1177</title>
			<desc>Power BI</desc>
			<v:textBlock v:margins="rect(4,4,4,4)" v:tabSpace="42.5197" v:verticalAlign="0"/>
			<v:textRect cx="67.4646" cy="95.2375" width="134.93" height="84.6509"/>
			<rect x="0" y="52.9121" width="134.929" height="84.6509" rx="5.66929" ry="5.66929" class="st21"/>
			<text x="49.15" y="65.91" class="st3" v:langID="1031"><v:paragraph v:horizAlign="1"/><v:tabList/>Power BI</text>		</g>
		<g id="shape1179-74" v:mID="1179" v:groupContext="shape" v:layerMember="0" transform="translate(650.876,-57.1216)">
			<title>Dynamic connector.1179</title>
			<desc>Reporting</desc>
			<v:textBlock v:margins="rect(4,4,4,4)" v:tabSpace="42.5197"/>
			<v:textRect cx="-28.5829" cy="139.07" width="41.84" height="17.6036"/>
			<path d="M0 130.62 L-114.84 130.35" class="st22"/>
			<rect v:rectContext="textBkgnd" x="-44.5923" y="134.27" width="32.0191" height="9.59985" class="st7"/>
			<text x="-44.59" y="141.47" class="st24" v:langID="1031"><v:paragraph v:horizAlign="1"/><v:tabList/>Reporting</text>		</g>
	</g>
</svg>
